<svg version="1.1" viewBox="0.0 0.0 600.0 371.0" fill="none" stroke="none" stroke-linecap="square" stroke-miterlimit="10" width="600" height="371" xmlns:xlink="http://www.w3.org/1999/xlink" xmlns="http://www.w3.org/2000/svg"><path fill="#ffffff" d="M0 0L600.0 0L600.0 371.0L0 371.0L0 0Z" fill-rule="nonzero"/><path stroke="#cccccc" stroke-width="1.0" stroke-linecap="butt" d="M70.5 332.5L581.5 332.5" fill-rule="nonzero"/><path stroke="#cccccc" stroke-width="1.0" stroke-linecap="butt" d="M70.5 290.5L581.5 290.5" fill-rule="nonzero"/><path stroke="#cccccc" stroke-width="1.0" stroke-linecap="butt" d="M70.5 248.5L581.5 248.5" fill-rule="nonzero"/><path stroke="#cccccc" stroke-width="1.0" stroke-linecap="butt" d="M70.5 206.5L581.5 206.5" fill-rule="nonzero"/><path stroke="#cccccc" stroke-width="1.0" stroke-linecap="butt" d="M70.5 164.5L581.5 164.5" fill-rule="nonzero"/><path stroke="#cccccc" stroke-width="1.0" stroke-linecap="butt" d="M70.5 122.5L581.5 122.5" fill-rule="nonzero"/><clipPath id="id_0"><path d="M70.55 88.28333L581.45 88.28333L581.45 332.45L70.55 332.45L70.55 88.28333Z" clip-rule="nonzero"/></clipPath><path stroke="#000000" stroke-width="2.0" stroke-linecap="butt" stroke-opacity="0.0" clip-path="url(#id_0)" d="M109.0 332.0L96.0 332.0L96.0 285.0C96.0 283.89542 96.89543 283.0 98.0 283.0L107.0 283.0C108.10457 283.0 109.0 283.89542 109.0 285.0Z" fill-rule="nonzero"/><path fill="#4285f4" clip-path="url(#id_0)" d="M109.0 332.0L96.0 332.0L96.0 285.0C96.0 283.89542 96.89543 283.0 98.0 283.0L107.0 283.0C108.10457 283.0 109.0 283.89542 109.0 285.0Z" fill-rule="nonzero"/><path stroke="#000000" stroke-width="2.0" stroke-linecap="butt" stroke-opacity="0.0" clip-path="url(#id_0)" d="M179.0 332.0L166.0 332.0L166.0 255.0C166.0 253.89543 166.89543 253.0 168.0 253.0L177.0 253.0C178.10457 253.0 179.0 253.89543 179.0 255.0Z" fill-rule="nonzero"/><path fill="#4285f4" clip-path="url(#id_0)" d="M179.0 332.0L166.0 332.0L166.0 255.0C166.0 253.89543 166.89543 253.0 168.0 253.0L177.0 253.0C178.10457 253.0 179.0 253.89543 179.0 255.0Z" fill-rule="nonzero"/><path stroke="#000000" stroke-width="2.0" stroke-linecap="butt" stroke-opacity="0.0" clip-path="url(#id_0)" d="M248.0 332.0L235.0 332.0L235.0 217.0C235.0 215.89543 235.89543 215.0 237.0 215.0L246.0 215.0C247.10457 215.0 248.0 215.89543 248.0 217.0Z" fill-rule="nonzero"/><path fill="#4285f4" clip-path="url(#id_0)" d="M248.0 332.0L235.0 332.0L235.0 217.0C235.0 215.89543 235.89543 215.0 237.0 215.0L246.0 215.0C247.10457 215.0 248.0 215.89543 248.0 217.0Z" fill-rule="nonzero"/><path stroke="#000000" stroke-width="2.0" stroke-linecap="butt" stroke-opacity="0.0" clip-path="url(#id_0)" d="M318.0 332.0L305.0 332.0L305.0 179.0C305.0 177.89543 305.89542 177.0 307.0 177.0L316.0 177.0C317.10458 177.0 318.0 177.89543 318.0 179.0Z" fill-rule="nonzero"/><path fill="#4285f4" clip-path="url(#id_0)" d="M318.0 332.0L305.0 332.0L305.0 179.0C305.0 177.89543 305.89542 177.0 307.0 177.0L316.0 177.0C317.10458 177.0 318.0 177.89543 318.0 179.0Z" fill-rule="nonzero"/><path stroke="#000000" stroke-width="2.0" stroke-linecap="butt" stroke-opacity="0.0" clip-path="url(#id_0)" d="M388.0 332.0L375.0 332.0L375.0 141.0C375.0 139.89543 375.89542 139.0 377.0 139.0L386.0 139.0C387.10458 139.0 388.0 139.89543 388.0 141.0Z" fill-rule="nonzero"/><path fill="#4285f4" clip-path="url(#id_0)" d="M388.0 332.0L375.0 332.0L375.0 141.0C375.0 139.89543 375.89542 139.0 377.0 139.0L386.0 139.0C387.10458 139.0 388.0 139.89543 388.0 141.0Z" fill-rule="nonzero"/><path stroke="#000000" stroke-width="2.0" stroke-linecap="butt" stroke-opacity="0.0" clip-path="url(#id_0)" d="M457.0 332.0L444.0 332.0L444.0 103.0C444.0 101.89543 444.89542 101.0 446.0 101.0L455.0 101.0C456.10458 101.0 457.0 101.89543 457.0 103.0Z" fill-rule="nonzero"/><path fill="#4285f4" clip-path="url(#id_0)" d="M457.0 332.0L444.0 332.0L444.0 103.0C444.0 101.89543 444.89542 101.0 446.0 101.0L455.0 101.0C456.10458 101.0 457.0 101.89543 457.0 103.0Z" fill-rule="nonzero"/><path stroke="#000000" stroke-width="2.0" stroke-linecap="butt" stroke-opacity="0.0" clip-path="url(#id_0)" d="M527.0 332.0L514.0 332.0L514.0 90.0C514.0 88.89543 514.89545 88.0 516.0 88.0L525.0 88.0C526.10455 88.0 527.0 88.89543 527.0 90.0Z" fill-rule="nonzero"/><path fill="#4285f4" clip-path="url(#id_0)" d="M527.0 332.0L514.0 332.0L514.0 90.0C514.0 88.89543 514.89545 88.0 516.0 88.0L525.0 88.0C526.10455 88.0 527.0 88.89543 527.0 90.0Z" fill-rule="nonzero"/><path stroke="#000000" stroke-width="2.0" stroke-linecap="butt" stroke-opacity="0.0" clip-path="url(#id_0)" d="M124.0 332.0L111.0 332.0L111.0 297.0C111.0 295.89542 111.89543 295.0 113.0 295.0L122.0 295.0C123.10457 295.0 124.0 295.89542 124.0 297.0Z" fill-rule="nonzero"/><path fill="#ea4335" clip-path="url(#id_0)" d="M124.0 332.0L111.0 332.0L111.0 297.0C111.0 295.89542 111.89543 295.0 113.0 295.0L122.0 295.0C123.10457 295.0 124.0 295.89542 124.0 297.0Z" fill-rule="nonzero"/><path stroke="#000000" stroke-width="2.0" stroke-linecap="butt" stroke-opacity="0.0" clip-path="url(#id_0)" d="M194.0 332.0L181.0 332.0L181.0 275.0C181.0 273.89542 181.89543 273.0 183.0 273.0L192.0 273.0C193.10457 273.0 194.0 273.89542 194.0 275.0Z" fill-rule="nonzero"/><path fill="#ea4335" clip-path="url(#id_0)" d="M194.0 332.0L181.0 332.0L181.0 275.0C181.0 273.89542 181.89543 273.0 183.0 273.0L192.0 273.0C193.10457 273.0 194.0 273.89542 194.0 275.0Z" fill-rule="nonzero"/><path stroke="#000000" stroke-width="2.0" stroke-linecap="butt" stroke-opacity="0.0" clip-path="url(#id_0)" d="M263.0 332.0L250.0 332.0L250.0 245.0C250.0 243.89543 250.89543 243.0 252.0 243.0L261.0 243.0C262.10458 243.0 263.0 243.89543 263.0 245.0Z" fill-rule="nonzero"/><path fill="#ea4335" clip-path="url(#id_0)" d="M263.0 332.0L250.0 332.0L250.0 245.0C250.0 243.89543 250.89543 243.0 252.0 243.0L261.0 243.0C262.10458 243.0 263.0 243.89543 263.0 245.0Z" fill-rule="nonzero"/><path stroke="#000000" stroke-width="2.0" stroke-linecap="butt" stroke-opacity="0.0" clip-path="url(#id_0)" d="M333.0 332.0L320.0 332.0L320.0 213.0C320.0 211.89543 320.89542 211.0 322.0 211.0L331.0 211.0C332.10458 211.0 333.0 211.89543 333.0 213.0Z" fill-rule="nonzero"/><path fill="#ea4335" clip-path="url(#id_0)" d="M333.0 332.0L320.0 332.0L320.0 213.0C320.0 211.89543 320.89542 211.0 322.0 211.0L331.0 211.0C332.10458 211.0 333.0 211.89543 333.0 213.0Z" fill-rule="nonzero"/><path stroke="#000000" stroke-width="2.0" stroke-linecap="butt" stroke-opacity="0.0" clip-path="url(#id_0)" d="M403.0 332.0L390.0 332.0L390.0 176.0C390.0 174.89543 390.89542 174.0 392.0 174.0L401.0 174.0C402.10458 174.0 403.0 174.89543 403.0 176.0Z" fill-rule="nonzero"/><path fill="#ea4335" clip-path="url(#id_0)" d="M403.0 332.0L390.0 332.0L390.0 176.0C390.0 174.89543 390.89542 174.0 392.0 174.0L401.0 174.0C402.10458 174.0 403.0 174.89543 403.0 176.0Z" fill-rule="nonzero"/><path stroke="#000000" stroke-width="2.0" stroke-linecap="butt" stroke-opacity="0.0" clip-path="url(#id_0)" d="M472.0 332.0L459.0 332.0L459.0 139.0C459.0 137.89543 459.89542 137.0 461.0 137.0L470.0 137.0C471.10458 137.0 472.0 137.89543 472.0 139.0Z" fill-rule="nonzero"/><path fill="#ea4335" clip-path="url(#id_0)" d="M472.0 332.0L459.0 332.0L459.0 139.0C459.0 137.89543 459.89542 137.0 461.0 137.0L470.0 137.0C471.10458 137.0 472.0 137.89543 472.0 139.0Z" fill-rule="nonzero"/><path stroke="#000000" stroke-width="2.0" stroke-linecap="butt" stroke-opacity="0.0" clip-path="url(#id_0)" d="M542.0 332.0L529.0 332.0L529.0 126.0C529.0 124.89543 529.89545 124.0 531.0 124.0L540.0 124.0C541.10455 124.0 542.0 124.89543 542.0 126.0Z" fill-rule="nonzero"/><path fill="#ea4335" clip-path="url(#id_0)" d="M542.0 332.0L529.0 332.0L529.0 126.0C529.0 124.89543 529.89545 124.0 531.0 124.0L540.0 124.0C541.10455 124.0 542.0 124.89543 542.0 126.0Z" fill-rule="nonzero"/><path stroke="#000000" stroke-width="2.0" stroke-linecap="butt" stroke-opacity="0.0" clip-path="url(#id_0)" d="M139.0 332.0L126.0 332.0L126.0 323.0C126.0 321.89542 126.89543 321.0 128.0 321.0L137.0 321.0C138.10457 321.0 139.0 321.89542 139.0 323.0Z" fill-rule="nonzero"/><path fill="#fbbc04" clip-path="url(#id_0)" d="M139.0 332.0L126.0 332.0L126.0 323.0C126.0 321.89542 126.89543 321.0 128.0 321.0L137.0 321.0C138.10457 321.0 139.0 321.89542 139.0 323.0Z" fill-rule="nonzero"/><path stroke="#000000" stroke-width="2.0" stroke-linecap="butt" stroke-opacity="0.0" clip-path="url(#id_0)" d="M209.0 332.0L196.0 332.0L196.0 275.0C196.0 273.89542 196.89543 273.0 198.0 273.0L207.0 273.0C208.10457 273.0 209.0 273.89542 209.0 275.0Z" fill-rule="nonzero"/><path fill="#fbbc04" clip-path="url(#id_0)" d="M209.0 332.0L196.0 332.0L196.0 275.0C196.0 273.89542 196.89543 273.0 198.0 273.0L207.0 273.0C208.10457 273.0 209.0 273.89542 209.0 275.0Z" fill-rule="nonzero"/><path stroke="#000000" stroke-width="2.0" stroke-linecap="butt" stroke-opacity="0.0" clip-path="url(#id_0)" d="M278.0 332.0L265.0 332.0L265.0 238.0C265.0 236.89543 265.89542 236.0 267.0 236.0L276.0 236.0C277.10458 236.0 278.0 236.89543 278.0 238.0Z" fill-rule="nonzero"/><path fill="#fbbc04" clip-path="url(#id_0)" d="M278.0 332.0L265.0 332.0L265.0 238.0C265.0 236.89543 265.89542 236.0 267.0 236.0L276.0 236.0C277.10458 236.0 278.0 236.89543 278.0 238.0Z" fill-rule="nonzero"/><path stroke="#000000" stroke-width="2.0" stroke-linecap="butt" stroke-opacity="0.0" clip-path="url(#id_0)" d="M348.0 332.0L335.0 332.0L335.0 204.0C335.0 202.89543 335.89542 202.0 337.0 202.0L346.0 202.0C347.10458 202.0 348.0 202.89543 348.0 204.0Z" fill-rule="nonzero"/><path fill="#fbbc04" clip-path="url(#id_0)" d="M348.0 332.0L335.0 332.0L335.0 204.0C335.0 202.89543 335.89542 202.0 337.0 202.0L346.0 202.0C347.10458 202.0 348.0 202.89543 348.0 204.0Z" fill-rule="nonzero"/><path stroke="#000000" stroke-width="2.0" stroke-linecap="butt" stroke-opacity="0.0" clip-path="url(#id_0)" d="M418.0 332.0L405.0 332.0L405.0 166.0C405.0 164.89543 405.89542 164.0 407.0 164.0L416.0 164.0C417.10458 164.0 418.0 164.89543 418.0 166.0Z" fill-rule="nonzero"/><path fill="#fbbc04" clip-path="url(#id_0)" d="M418.0 332.0L405.0 332.0L405.0 166.0C405.0 164.89543 405.89542 164.0 407.0 164.0L416.0 164.0C417.10458 164.0 418.0 164.89543 418.0 166.0Z" fill-rule="nonzero"/><path stroke="#000000" stroke-width="2.0" stroke-linecap="butt" stroke-opacity="0.0" clip-path="url(#id_0)" d="M487.0 332.0L474.0 332.0L474.0 129.0C474.0 127.89543 474.89542 127.0 476.0 127.0L485.0 127.0C486.10458 127.0 487.0 127.89543 487.0 129.0Z" fill-rule="nonzero"/><path fill="#fbbc04" clip-path="url(#id_0)" d="M487.0 332.0L474.0 332.0L474.0 129.0C474.0 127.89543 474.89542 127.0 476.0 127.0L485.0 127.0C486.10458 127.0 487.0 127.89543 487.0 129.0Z" fill-rule="nonzero"/><path stroke="#000000" stroke-width="2.0" stroke-linecap="butt" stroke-opacity="0.0" clip-path="url(#id_0)" d="M557.0 332.0L544.0 332.0L544.0 116.0C544.0 114.89543 544.89545 114.0 546.0 114.0L555.0 114.0C556.10455 114.0 557.0 114.89543 557.0 116.0Z" fill-rule="nonzero"/><path fill="#fbbc04" clip-path="url(#id_0)" d="M557.0 332.0L544.0 332.0L544.0 116.0C544.0 114.89543 544.89545 114.0 546.0 114.0L555.0 114.0C556.10455 114.0 557.0 114.89543 557.0 116.0Z" fill-rule="nonzero"/><path fill="#000000" d="M23.01875 336.45L21.971874 336.45L21.971874 329.73126Q21.58125 330.09064 20.95625 330.46564Q20.346874 330.825 19.8625 330.9969L19.8625 329.98126Q20.7375 329.5594 21.39375 328.98126Q22.065624 328.3875 22.346874 327.825L23.01875 327.825L23.01875 336.45ZM26.64375 336.45L26.64375 335.2469L27.846874 335.2469L27.846874 336.45L26.64375 336.45ZM29.05 332.21564Q29.05 330.6844 29.3625 329.7625Q29.675 328.825 30.284374 328.325Q30.909374 327.825 31.846874 327.825Q32.534374 327.825 33.05 328.10626Q33.58125 328.3875 33.925 328.91876Q34.26875 329.4344 34.45625 330.1844Q34.64375 330.9344 34.64375 332.21564Q34.64375 333.73126 34.33125 334.65314Q34.034374 335.575 33.409374 336.09064Q32.8 336.59064 31.846874 336.59064Q30.6125 336.59064 29.89375 335.7Q29.05 334.6375 29.05 332.21564ZM30.128124 332.21564Q30.128124 334.325 30.628124 335.02814Q31.128124 335.73126 31.846874 335.73126Q32.58125 335.73126 33.065624 335.02814Q33.565624 334.325 33.565624 332.21564Q33.565624 330.09064 33.065624 329.40314Q32.58125 328.7 31.83125 328.7Q31.1125 328.7 30.675 329.3094Q30.128124 330.09064 30.128124 332.21564ZM36.05 332.21564Q36.05 330.6844 36.3625 329.7625Q36.675 328.825 37.284374 328.325Q37.909374 327.825 38.846874 327.825Q39.534374 327.825 40.05 328.10626Q40.58125 328.3875 40.925 328.91876Q41.26875 329.4344 41.45625 330.1844Q41.64375 330.9344 41.64375 332.21564Q41.64375 333.73126 41.33125 334.65314Q41.034374 335.575 40.409374 336.09064Q39.8 336.59064 38.846874 336.59064Q37.6125 336.59064 36.89375 335.7Q36.05 334.6375 36.05 332.21564ZM37.128124 332.21564Q37.128124 334.325 37.628124 335.02814Q38.128124 335.73126 38.846874 335.73126Q39.58125 335.73126 40.065624 335.02814Q40.565624 334.325 40.565624 332.21564Q40.565624 330.09064 40.065624 329.40314Q39.58125 328.7 38.83125 328.7Q38.1125 328.7 37.675 329.3094Q37.128124 330.09064 37.128124 332.21564ZM43.503124 336.45L43.503124 327.85626L49.70625 327.85626L49.70625 328.8719L44.64375 328.8719L44.64375 331.4969L49.39375 331.4969L49.39375 332.5125L44.64375 332.5125L44.64375 335.4344L49.909374 335.4344L49.909374 336.45L43.503124 336.45ZM53.55 335.0594L53.55 332.7L51.221874 332.7L51.221874 331.71564L53.55 331.71564L53.55 329.3875L54.55 329.3875L54.55 331.71564L56.89375 331.71564L56.89375 332.7L54.55 332.7L54.55 335.0594L53.55 335.0594ZM58.05 332.21564Q58.05 330.6844 58.3625 329.7625Q58.675 328.825 59.284374 328.325Q59.909374 327.825 60.846874 327.825Q61.534374 327.825 62.05 328.10626Q62.58125 328.3875 62.925 328.91876Q63.26875 329.4344 63.45625 330.1844Q63.64375 330.9344 63.64375 332.21564Q63.64375 333.73126 63.33125 334.65314Q63.034374 335.575 62.409374 336.09064Q61.8 336.59064 60.846874 336.59064Q59.6125 336.59064 58.89375 335.7Q58.05 334.6375 58.05 332.21564ZM59.128124 332.21564Q59.128124 334.325 59.628124 335.02814Q60.128124 335.73126 60.846874 335.73126Q61.58125 335.73126 62.065624 335.02814Q62.565624 334.325 62.565624 332.21564Q62.565624 330.09064 62.065624 329.40314Q61.58125 328.7 60.83125 328.7Q60.1125 328.7 59.675 329.3094Q59.128124 330.09064 59.128124 332.21564Z" fill-rule="nonzero"/><path fill="#000000" d="M23.01875 294.54538L21.971874 294.54538L21.971874 287.82663Q21.58125 288.186 20.95625 288.561Q20.346874 288.92038 19.8625 289.09225L19.8625 288.07663Q20.7375 287.65475 21.39375 287.07663Q22.065624 286.48288 22.346874 285.92038L23.01875 285.92038L23.01875 294.54538ZM26.64375 294.54538L26.64375 293.34225L27.846874 293.34225L27.846874 294.54538L26.64375 294.54538ZM29.05 290.311Q29.05 288.77975 29.3625 287.85788Q29.675 286.92038 30.284374 286.42038Q30.909374 285.92038 31.846874 285.92038Q32.534374 285.92038 33.05 286.20163Q33.58125 286.48288 33.925 287.01413Q34.26875 287.52975 34.45625 288.27975Q34.64375 289.02975 34.64375 290.311Q34.64375 291.82663 34.33125 292.7485Q34.034374 293.67038 33.409374 294.186Q32.8 294.686 31.846874 294.686Q30.6125 294.686 29.89375 293.79538Q29.05 292.73288 29.05 290.311ZM30.128124 290.311Q30.128124 292.42038 30.628124 293.1235Q31.128124 293.82663 31.846874 293.82663Q32.58125 293.82663 33.065624 293.1235Q33.565624 292.42038 33.565624 290.311Q33.565624 288.186 33.065624 287.4985Q32.58125 286.79538 31.83125 286.79538Q31.1125 286.79538 30.675 287.40475Q30.128124 288.186 30.128124 290.311ZM36.05 290.311Q36.05 288.77975 36.3625 287.85788Q36.675 286.92038 37.284374 286.42038Q37.909374 285.92038 38.846874 285.92038Q39.534374 285.92038 40.05 286.20163Q40.58125 286.48288 40.925 287.01413Q41.26875 287.52975 41.45625 288.27975Q41.64375 289.02975 41.64375 290.311Q41.64375 291.82663 41.33125 292.7485Q41.034374 293.67038 40.409374 294.186Q39.8 294.686 38.846874 294.686Q37.6125 294.686 36.89375 293.79538Q36.05 292.73288 36.05 290.311ZM37.128124 290.311Q37.128124 292.42038 37.628124 293.1235Q38.128124 293.82663 38.846874 293.82663Q39.58125 293.82663 40.065624 293.1235Q40.565624 292.42038 40.565624 290.311Q40.565624 288.186 40.065624 287.4985Q39.58125 286.79538 38.83125 286.79538Q38.1125 286.79538 37.675 287.40475Q37.128124 288.186 37.128124 290.311ZM43.503124 294.54538L43.503124 285.95163L49.70625 285.95163L49.70625 286.96725L44.64375 286.96725L44.64375 289.59225L49.39375 289.59225L49.39375 290.60788L44.64375 290.60788L44.64375 293.52975L49.909374 293.52975L49.909374 294.54538L43.503124 294.54538ZM53.55 293.15475L53.55 290.79538L51.221874 290.79538L51.221874 289.811L53.55 289.811L53.55 287.48288L54.55 287.48288L54.55 289.811L56.89375 289.811L56.89375 290.79538L54.55 290.79538L54.55 293.15475L53.55 293.15475ZM62.01875 294.54538L60.971874 294.54538L60.971874 287.82663Q60.58125 288.186 59.95625 288.561Q59.346874 288.92038 58.8625 289.09225L58.8625 288.07663Q59.7375 287.65475 60.39375 287.07663Q61.065624 286.48288 61.346874 285.92038L62.01875 285.92038L62.01875 294.54538Z" fill-rule="nonzero"/><path fill="#000000" d="M23.01875 252.64073L21.971874 252.64073L21.971874 245.92198Q21.58125 246.28136 20.95625 246.65636Q20.346874 247.01573 19.8625 247.1876L19.8625 246.17198Q20.7375 245.7501 21.39375 245.17198Q22.065624 244.57823 22.346874 244.01573L23.01875 244.01573L23.01875 252.64073ZM26.64375 252.64073L26.64375 251.4376L27.846874 251.4376L27.846874 252.64073L26.64375 252.64073ZM29.05 248.40636Q29.05 246.8751 29.3625 245.95323Q29.675 245.01573 30.284374 244.51573Q30.909374 244.01573 31.846874 244.01573Q32.534374 244.01573 33.05 244.29698Q33.58125 244.57823 33.925 245.10948Q34.26875 245.6251 34.45625 246.3751Q34.64375 247.1251 34.64375 248.40636Q34.64375 249.92198 34.33125 250.84386Q34.034374 251.76573 33.409374 252.28136Q32.8 252.78136 31.846874 252.78136Q30.6125 252.78136 29.89375 251.89073Q29.05 250.82823 29.05 248.40636ZM30.128124 248.40636Q30.128124 250.51573 30.628124 251.21886Q31.128124 251.92198 31.846874 251.92198Q32.58125 251.92198 33.065624 251.21886Q33.565624 250.51573 33.565624 248.40636Q33.565624 246.28136 33.065624 245.59386Q32.58125 244.89073 31.83125 244.89073Q31.1125 244.89073 30.675 245.5001Q30.128124 246.28136 30.128124 248.40636ZM36.05 248.40636Q36.05 246.8751 36.3625 245.95323Q36.675 245.01573 37.284374 244.51573Q37.909374 244.01573 38.846874 244.01573Q39.534374 244.01573 40.05 244.29698Q40.58125 244.57823 40.925 245.10948Q41.26875 245.6251 41.45625 246.3751Q41.64375 247.1251 41.64375 248.40636Q41.64375 249.92198 41.33125 250.84386Q41.034374 251.76573 40.409374 252.28136Q39.8 252.78136 38.846874 252.78136Q37.6125 252.78136 36.89375 251.89073Q36.05 250.82823 36.05 248.40636ZM37.128124 248.40636Q37.128124 250.51573 37.628124 251.21886Q38.128124 251.92198 38.846874 251.92198Q39.58125 251.92198 40.065624 251.21886Q40.565624 250.51573 40.565624 248.40636Q40.565624 246.28136 40.065624 245.59386Q39.58125 244.89073 38.83125 244.89073Q38.1125 244.89073 37.675 245.5001Q37.128124 246.28136 37.128124 248.40636ZM43.503124 252.64073L43.503124 244.04698L49.70625 244.04698L49.70625 245.0626L44.64375 245.0626L44.64375 247.6876L49.39375 247.6876L49.39375 248.70323L44.64375 248.70323L44.64375 251.6251L49.909374 251.6251L49.909374 252.64073L43.503124 252.64073ZM53.55 251.2501L53.55 248.89073L51.221874 248.89073L51.221874 247.90636L53.55 247.90636L53.55 245.57823L54.55 245.57823L54.55 247.90636L56.89375 247.90636L56.89375 248.89073L54.55 248.89073L54.55 251.2501L53.55 251.2501ZM63.596874 251.6251L63.596874 252.64073L57.909374 252.64073Q57.909374 252.26573 58.034374 251.90636Q58.253124 251.32823 58.721874 250.76573Q59.20625 250.20323 60.1125 249.46886Q61.51875 248.3126 62.003124 247.64073Q62.503124 246.96886 62.503124 246.3751Q62.503124 245.7501 62.05 245.32823Q61.596874 244.89073 60.878124 244.89073Q60.1125 244.89073 59.659374 245.34386Q59.20625 245.79698 59.190624 246.60948L58.1125 246.5001Q58.221874 245.28136 58.940624 244.65636Q59.675 244.01573 60.909374 244.01573Q62.14375 244.01573 62.8625 244.70323Q63.58125 245.39073 63.58125 246.40636Q63.58125 246.92198 63.3625 247.42198Q63.159374 247.90636 62.659374 248.46886Q62.175 249.01573 61.05 249.96886Q60.096874 250.76573 59.815624 251.0626Q59.55 251.34386 59.378124 251.6251L63.596874 251.6251Z" fill-rule="nonzero"/><path fill="#000000" d="M23.01875 210.7361L21.971874 210.7361L21.971874 204.01735Q21.58125 204.37672 20.95625 204.75172Q20.346874 205.1111 19.8625 205.28297L19.8625 204.26735Q20.7375 203.84547 21.39375 203.26735Q22.065624 202.6736 22.346874 202.1111L23.01875 202.1111L23.01875 210.7361ZM26.64375 210.7361L26.64375 209.53297L27.846874 209.53297L27.846874 210.7361L26.64375 210.7361ZM29.05 206.50172Q29.05 204.97047 29.3625 204.0486Q29.675 203.1111 30.284374 202.6111Q30.909374 202.1111 31.846874 202.1111Q32.534374 202.1111 33.05 202.39235Q33.58125 202.6736 33.925 203.20485Q34.26875 203.72047 34.45625 204.47047Q34.64375 205.22047 34.64375 206.50172Q34.64375 208.01735 34.33125 208.93922Q34.034374 209.8611 33.409374 210.37672Q32.8 210.87672 31.846874 210.87672Q30.6125 210.87672 29.89375 209.9861Q29.05 208.9236 29.05 206.50172ZM30.128124 206.50172Q30.128124 208.6111 30.628124 209.31422Q31.128124 210.01735 31.846874 210.01735Q32.58125 210.01735 33.065624 209.31422Q33.565624 208.6111 33.565624 206.50172Q33.565624 204.37672 33.065624 203.68922Q32.58125 202.9861 31.83125 202.9861Q31.1125 202.9861 30.675 203.59547Q30.128124 204.37672 30.128124 206.50172ZM36.05 206.50172Q36.05 204.97047 36.3625 204.0486Q36.675 203.1111 37.284374 202.6111Q37.909374 202.1111 38.846874 202.1111Q39.534374 202.1111 40.05 202.39235Q40.58125 202.6736 40.925 203.20485Q41.26875 203.72047 41.45625 204.47047Q41.64375 205.22047 41.64375 206.50172Q41.64375 208.01735 41.33125 208.93922Q41.034374 209.8611 40.409374 210.37672Q39.8 210.87672 38.846874 210.87672Q37.6125 210.87672 36.89375 209.9861Q36.05 208.9236 36.05 206.50172ZM37.128124 206.50172Q37.128124 208.6111 37.628124 209.31422Q38.128124 210.01735 38.846874 210.01735Q39.58125 210.01735 40.065624 209.31422Q40.565624 208.6111 40.565624 206.50172Q40.565624 204.37672 40.065624 203.68922Q39.58125 202.9861 38.83125 202.9861Q38.1125 202.9861 37.675 203.59547Q37.128124 204.37672 37.128124 206.50172ZM43.503124 210.7361L43.503124 202.14235L49.70625 202.14235L49.70625 203.15797L44.64375 203.15797L44.64375 205.78297L49.39375 205.78297L49.39375 206.7986L44.64375 206.7986L44.64375 209.72047L49.909374 209.72047L49.909374 210.7361L43.503124 210.7361ZM53.55 209.34547L53.55 206.9861L51.221874 206.9861L51.221874 206.00172L53.55 206.00172L53.55 203.6736L54.55 203.6736L54.55 206.00172L56.89375 206.00172L56.89375 206.9861L54.55 206.9861L54.55 209.34547L53.55 209.34547ZM58.05 208.47047L59.1125 208.32985Q59.284374 209.22047 59.721874 209.62672Q60.159374 210.01735 60.784374 210.01735Q61.534374 210.01735 62.05 209.50172Q62.565624 208.9861 62.565624 208.22047Q62.565624 207.50172 62.08125 207.03297Q61.6125 206.5486 60.878124 206.5486Q60.58125 206.5486 60.128124 206.6736L60.253124 205.7361Q60.3625 205.75172 60.425 205.75172Q61.096874 205.75172 61.628124 205.40797Q62.175 205.0486 62.175 204.31422Q62.175 203.7361 61.784374 203.3611Q61.39375 202.97047 60.76875 202.97047Q60.159374 202.97047 59.7375 203.3611Q59.33125 203.75172 59.221874 204.51735L58.159374 204.32985Q58.346874 203.28297 59.034374 202.70485Q59.721874 202.1111 60.7375 202.1111Q61.440624 202.1111 62.034374 202.4236Q62.628124 202.72047 62.940624 203.2361Q63.253124 203.75172 63.253124 204.34547Q63.253124 204.89235 62.95625 205.3611Q62.659374 205.81422 62.08125 206.07985Q62.83125 206.25172 63.253124 206.81422Q63.675 207.3611 63.675 208.20485Q63.675 209.32985 62.846874 210.1111Q62.034374 210.89235 60.784374 210.89235Q59.659374 210.89235 58.909374 210.22047Q58.159374 209.53297 58.05 208.47047Z" fill-rule="nonzero"/><path fill="#000000" d="M23.01875 168.83147L21.971874 168.83147L21.971874 162.11272Q21.58125 162.47209 20.95625 162.84709Q20.346874 163.20647 19.8625 163.37834L19.8625 162.36272Q20.7375 161.94084 21.39375 161.36272Q22.065624 160.76897 22.346874 160.20647L23.01875 160.20647L23.01875 168.83147ZM26.64375 168.83147L26.64375 167.62834L27.846874 167.62834L27.846874 168.83147L26.64375 168.83147ZM29.05 164.59709Q29.05 163.06584 29.3625 162.14397Q29.675 161.20647 30.284374 160.70647Q30.909374 160.20647 31.846874 160.20647Q32.534374 160.20647 33.05 160.48772Q33.58125 160.76897 33.925 161.30022Q34.26875 161.81584 34.45625 162.56584Q34.64375 163.31584 34.64375 164.59709Q34.64375 166.11272 34.33125 167.03459Q34.034374 167.95647 33.409374 168.47209Q32.8 168.97209 31.846874 168.97209Q30.6125 168.97209 29.89375 168.08147Q29.05 167.01897 29.05 164.59709ZM30.128124 164.59709Q30.128124 166.70647 30.628124 167.40959Q31.128124 168.11272 31.846874 168.11272Q32.58125 168.11272 33.065624 167.40959Q33.565624 166.70647 33.565624 164.59709Q33.565624 162.47209 33.065624 161.78459Q32.58125 161.08147 31.83125 161.08147Q31.1125 161.08147 30.675 161.69084Q30.128124 162.47209 30.128124 164.59709ZM36.05 164.59709Q36.05 163.06584 36.3625 162.14397Q36.675 161.20647 37.284374 160.70647Q37.909374 160.20647 38.846874 160.20647Q39.534374 160.20647 40.05 160.48772Q40.58125 160.76897 40.925 161.30022Q41.26875 161.81584 41.45625 162.56584Q41.64375 163.31584 41.64375 164.59709Q41.64375 166.11272 41.33125 167.03459Q41.034374 167.95647 40.409374 168.47209Q39.8 168.97209 38.846874 168.97209Q37.6125 168.97209 36.89375 168.08147Q36.05 167.01897 36.05 164.59709ZM37.128124 164.59709Q37.128124 166.70647 37.628124 167.40959Q38.128124 168.11272 38.846874 168.11272Q39.58125 168.11272 40.065624 167.40959Q40.565624 166.70647 40.565624 164.59709Q40.565624 162.47209 40.065624 161.78459Q39.58125 161.08147 38.83125 161.08147Q38.1125 161.08147 37.675 161.69084Q37.128124 162.47209 37.128124 164.59709ZM43.503124 168.83147L43.503124 160.23772L49.70625 160.23772L49.70625 161.25334L44.64375 161.25334L44.64375 163.87834L49.39375 163.87834L49.39375 164.89397L44.64375 164.89397L44.64375 167.81584L49.909374 167.81584L49.909374 168.83147L43.503124 168.83147ZM53.55 167.44084L53.55 165.08147L51.221874 165.08147L51.221874 164.09709L53.55 164.09709L53.55 161.76897L54.55 161.76897L54.55 164.09709L56.89375 164.09709L56.89375 165.08147L54.55 165.08147L54.55 167.44084L53.55 167.44084ZM61.425 168.83147L61.425 166.76897L57.70625 166.76897L57.70625 165.80022L61.628124 160.23772L62.4875 160.23772L62.4875 165.80022L63.64375 165.80022L63.64375 166.76897L62.4875 166.76897L62.4875 168.83147L61.425 168.83147ZM61.425 165.80022L61.425 161.94084L58.7375 165.80022L61.425 165.80022Z" fill-rule="nonzero"/><path fill="#000000" d="M23.01875 126.926834L21.971874 126.926834L21.971874 120.208084Q21.58125 120.56746 20.95625 120.94246Q20.346874 121.301834 19.8625 121.47371L19.8625 120.458084Q20.7375 120.03621 21.39375 119.458084Q22.065624 118.864334 22.346874 118.301834L23.01875 118.301834L23.01875 126.926834ZM26.64375 126.926834L26.64375 125.72371L27.846874 125.72371L27.846874 126.926834L26.64375 126.926834ZM29.05 122.69246Q29.05 121.16121 29.3625 120.239334Q29.675 119.301834 30.284374 118.801834Q30.909374 118.301834 31.846874 118.301834Q32.534374 118.301834 33.05 118.583084Q33.58125 118.864334 33.925 119.395584Q34.26875 119.91121 34.45625 120.66121Q34.64375 121.41121 34.64375 122.69246Q34.64375 124.208084 34.33125 125.12996Q34.034374 126.051834 33.409374 126.56746Q32.8 127.06746 31.846874 127.06746Q30.6125 127.06746 29.89375 126.176834Q29.05 125.114334 29.05 122.69246ZM30.128124 122.69246Q30.128124 124.801834 30.628124 125.50496Q31.128124 126.208084 31.846874 126.208084Q32.58125 126.208084 33.065624 125.50496Q33.565624 124.801834 33.565624 122.69246Q33.565624 120.56746 33.065624 119.87996Q32.58125 119.176834 31.83125 119.176834Q31.1125 119.176834 30.675 119.78621Q30.128124 120.56746 30.128124 122.69246ZM36.05 122.69246Q36.05 121.16121 36.3625 120.239334Q36.675 119.301834 37.284374 118.801834Q37.909374 118.301834 38.846874 118.301834Q39.534374 118.301834 40.05 118.583084Q40.58125 118.864334 40.925 119.395584Q41.26875 119.91121 41.45625 120.66121Q41.64375 121.41121 41.64375 122.69246Q41.64375 124.208084 41.33125 125.12996Q41.034374 126.051834 40.409374 126.56746Q39.8 127.06746 38.846874 127.06746Q37.6125 127.06746 36.89375 126.176834Q36.05 125.114334 36.05 122.69246ZM37.128124 122.69246Q37.128124 124.801834 37.628124 125.50496Q38.128124 126.208084 38.846874 126.208084Q39.58125 126.208084 40.065624 125.50496Q40.565624 124.801834 40.565624 122.69246Q40.565624 120.56746 40.065624 119.87996Q39.58125 119.176834 38.83125 119.176834Q38.1125 119.176834 37.675 119.78621Q37.128124 120.56746 37.128124 122.69246ZM43.503124 126.926834L43.503124 118.333084L49.70625 118.333084L49.70625 119.34871L44.64375 119.34871L44.64375 121.97371L49.39375 121.97371L49.39375 122.989334L44.64375 122.989334L44.64375 125.91121L49.909374 125.91121L49.909374 126.926834L43.503124 126.926834ZM53.55 125.53621L53.55 123.176834L51.221874 123.176834L51.221874 122.19246L53.55 122.19246L53.55 119.864334L54.55 119.864334L54.55 122.19246L56.89375 122.19246L56.89375 123.176834L54.55 123.176834L54.55 125.53621L53.55 125.53621ZM58.05 124.676834L59.159374 124.583084Q59.284374 125.395584 59.721874 125.801834Q60.175 126.208084 60.815624 126.208084Q61.565624 126.208084 62.096874 125.62996Q62.628124 125.051834 62.628124 124.114334Q62.628124 123.208084 62.1125 122.69246Q61.6125 122.16121 60.784374 122.16121Q60.284374 122.16121 59.8625 122.395584Q59.45625 122.62996 59.221874 122.989334L58.2375 122.864334L59.065624 118.458084L63.346874 118.458084L63.346874 119.458084L59.909374 119.458084L59.45625 121.770584Q60.221874 121.22371 61.065624 121.22371Q62.190624 121.22371 62.95625 122.00496Q63.7375 122.78621 63.7375 124.020584Q63.7375 125.176834 63.065624 126.03621Q62.2375 127.06746 60.815624 127.06746Q59.64375 127.06746 58.89375 126.41121Q58.159374 125.75496 58.05 124.676834Z" fill-rule="nonzero"/><path fill="#000000" d="M118.43814 349.45L117.391266 349.45L117.391266 342.73126Q117.00064 343.09064 116.37564 343.46564Q115.766266 343.825 115.28189 343.9969L115.28189 342.98126Q116.15689 342.5594 116.81314 341.98126Q117.485016 341.3875 117.766266 340.825L118.43814 340.825L118.43814 349.45Z" fill-rule="nonzero"/><path fill="#000000" d="M185.6046 344.79376Q184.94835 344.54376 184.62022 344.10626Q184.30772 343.65314 184.30772 343.04376Q184.30772 342.10626 184.9796 341.46564Q185.6671 340.825 186.77647 340.825Q187.90147 340.825 188.58897 341.48126Q189.27647 342.1375 189.27647 343.075Q189.27647 343.66876 188.96397 344.10626Q188.65147 344.54376 188.01085 344.79376Q188.80772 345.04376 189.21397 345.6219Q189.62022 346.2 189.62022 346.9969Q189.62022 348.09064 188.83897 348.84064Q188.07335 349.59064 186.7921 349.59064Q185.52647 349.59064 184.74522 348.84064Q183.96397 348.09064 183.96397 346.96564Q183.96397 346.1219 184.38585 345.5594Q184.82335 344.9969 185.6046 344.79376ZM185.38585 342.9969Q185.38585 343.60626 185.77647 343.9969Q186.18272 344.3875 186.80772 344.3875Q187.4171 344.3875 187.80772 344.0125Q188.19835 343.6219 188.19835 343.0594Q188.19835 342.48126 187.7921 342.09064Q187.38585 341.6844 186.7921 341.6844Q186.18272 341.6844 185.77647 342.075Q185.38585 342.46564 185.38585 342.9969ZM185.05772 346.96564Q185.05772 347.41876 185.26085 347.84064Q185.4796 348.2625 185.90147 348.4969Q186.32335 348.73126 186.80772 348.73126Q187.55772 348.73126 188.0421 348.2469Q188.5421 347.7625 188.5421 347.0125Q188.5421 346.2469 188.0421 345.7469Q187.5421 345.2469 186.77647 345.2469Q186.02647 345.2469 185.5421 345.7469Q185.05772 346.23126 185.05772 346.96564Z" fill-rule="nonzero"/><path fill="#000000" d="M255.45854 342.96564L254.41167 343.04376Q254.27104 342.41876 254.02104 342.1375Q253.58354 341.6844 252.95854 341.6844Q252.45854 341.6844 252.06792 341.96564Q251.58354 342.34064 251.28667 343.04376Q251.00542 343.73126 250.98979 345.0125Q251.36479 344.4344 251.91167 344.15314Q252.47417 343.8719 253.08354 343.8719Q254.13042 343.8719 254.86479 344.65314Q255.61479 345.4344 255.61479 346.65314Q255.61479 347.46564 255.25542 348.16876Q254.91167 348.85626 254.30229 349.23126Q253.69292 349.59064 252.92729 349.59064Q251.59917 349.59064 250.77104 348.6219Q249.94292 347.65314 249.94292 345.4344Q249.94292 342.9344 250.86479 341.8094Q251.66167 340.825 253.02104 340.825Q254.03667 340.825 254.67729 341.40314Q255.33354 341.96564 255.45854 342.96564ZM251.16167 346.66876Q251.16167 347.21564 251.38042 347.71564Q251.61479 348.2 252.02104 348.46564Q252.44292 348.73126 252.91167 348.73126Q253.56792 348.73126 254.05229 348.2Q254.53667 347.65314 254.53667 346.73126Q254.53667 345.84064 254.05229 345.325Q253.58354 344.8094 252.86479 344.8094Q252.14604 344.8094 251.64604 345.325Q251.16167 345.84064 251.16167 346.66876ZM260.3648 349.45L260.3648 347.3875L256.64606 347.3875L256.64606 346.41876L260.56793 340.85626L261.4273 340.85626L261.4273 346.41876L262.58356 346.41876L262.58356 347.3875L261.4273 347.3875L261.4273 349.45L260.3648 349.45ZM260.3648 346.41876L260.3648 342.5594L257.6773 346.41876L260.3648 346.41876Z" fill-rule="nonzero"/><path fill="#000000" d="M316.0 347.2L317.10938 347.10626Q317.23438 347.91876 317.67188 348.325Q318.125 348.73126 318.76562 348.73126Q319.51562 348.73126 320.04688 348.15314Q320.57812 347.575 320.57812 346.6375Q320.57812 345.73126 320.0625 345.21564Q319.5625 344.6844 318.73438 344.6844Q318.23438 344.6844 317.8125 344.91876Q317.40625 345.15314 317.17188 345.5125L316.1875 345.3875L317.01562 340.98126L321.29688 340.98126L321.29688 341.98126L317.85938 341.98126L317.40625 344.29376Q318.17188 343.7469 319.01562 343.7469Q320.14062 343.7469 320.90625 344.52814Q321.6875 345.3094 321.6875 346.54376Q321.6875 347.7 321.01562 348.5594Q320.1875 349.59064 318.76562 349.59064Q317.59375 349.59064 316.84375 348.9344Q316.10938 348.27814 316.0 347.2ZM326.96875 349.45L325.92188 349.45L325.92188 342.73126Q325.53125 343.09064 324.90625 343.46564Q324.29688 343.825 323.8125 343.9969L323.8125 342.98126Q324.6875 342.5594 325.34375 341.98126Q326.01562 341.3875 326.29688 340.825L326.96875 340.825L326.96875 349.45ZM335.54688 348.4344L335.54688 349.45L329.85938 349.45Q329.85938 349.075 329.98438 348.71564Q330.20312 348.1375 330.67188 347.575Q331.15625 347.0125 332.0625 346.27814Q333.46875 345.1219 333.95312 344.45Q334.45312 343.77814 334.45312 343.1844Q334.45312 342.5594 334.0 342.1375Q333.54688 341.7 332.82812 341.7Q332.0625 341.7 331.60938 342.15314Q331.15625 342.60626 331.14062 343.41876L330.0625 343.3094Q330.17188 342.09064 330.89062 341.46564Q331.625 340.825 332.85938 340.825Q334.09375 340.825 334.8125 341.5125Q335.53125 342.2 335.53125 343.21564Q335.53125 343.73126 335.3125 344.23126Q335.10938 344.71564 334.60938 345.27814Q334.125 345.825 333.0 346.77814Q332.04688 347.575 331.76562 347.8719Q331.5 348.15314 331.32812 348.4344L335.54688 348.4344Z" fill-rule="nonzero"/><path fill="#000000" d="M385.3852 349.45L385.3852 347.3875L381.66644 347.3875L381.66644 346.41876L385.58832 340.85626L386.4477 340.85626L386.4477 346.41876L387.60394 346.41876L387.60394 347.3875L386.4477 347.3875L386.4477 349.45L385.3852 349.45ZM385.3852 346.41876L385.3852 342.5594L382.6977 346.41876L385.3852 346.41876ZM389.0102 345.21564Q389.0102 343.6844 389.3227 342.7625Q389.6352 341.825 390.24457 341.325Q390.86957 340.825 391.80707 340.825Q392.49457 340.825 393.0102 341.10626Q393.54144 341.3875 393.8852 341.91876Q394.22894 342.4344 394.41644 343.1844Q394.60394 343.9344 394.60394 345.21564Q394.60394 346.73126 394.29144 347.65314Q393.99457 348.575 393.36957 349.09064Q392.7602 349.59064 391.80707 349.59064Q390.5727 349.59064 389.85394 348.7Q389.0102 347.6375 389.0102 345.21564ZM390.08832 345.21564Q390.08832 347.325 390.58832 348.02814Q391.08832 348.73126 391.80707 348.73126Q392.54144 348.73126 393.02582 348.02814Q393.52582 347.325 393.52582 345.21564Q393.52582 343.09064 393.02582 342.40314Q392.54144 341.7 391.79144 341.7Q391.0727 341.7 390.6352 342.3094Q390.08832 343.09064 390.08832 345.21564ZM396.16644 347.46564L397.18207 347.3719Q397.30707 348.09064 397.66644 348.41876Q398.04144 348.73126 398.60394 348.73126Q399.08832 348.73126 399.4477 348.5125Q399.8227 348.27814 400.05707 347.91876Q400.29144 347.54376 400.4477 346.91876Q400.60394 346.27814 400.60394 345.6219Q400.60394 345.54376 400.60394 345.40314Q400.29144 345.90314 399.74457 346.23126Q399.1977 346.54376 398.55707 346.54376Q397.47894 346.54376 396.74457 345.77814Q396.0102 344.9969 396.0102 343.73126Q396.0102 342.41876 396.77582 341.6219Q397.55707 340.825 398.71332 340.825Q399.54144 340.825 400.22894 341.27814Q400.93207 341.73126 401.29144 342.575Q401.65082 343.40314 401.65082 344.98126Q401.65082 346.6219 401.29144 347.60626Q400.9477 348.575 400.22894 349.09064Q399.52582 349.59064 398.58832 349.59064Q397.5727 349.59064 396.93207 349.04376Q396.29144 348.48126 396.16644 347.46564ZM400.47894 343.66876Q400.47894 342.7625 399.99457 342.23126Q399.52582 341.7 398.83832 341.7Q398.1352 341.7 397.60394 342.27814Q397.08832 342.84064 397.08832 343.7625Q397.08832 344.575 397.58832 345.09064Q398.08832 345.60626 398.80707 345.60626Q399.54144 345.60626 400.0102 345.09064Q400.47894 344.575 400.47894 343.66876ZM408.47894 342.96564L407.43207 343.04376Q407.29144 342.41876 407.04144 342.1375Q406.60394 341.6844 405.97894 341.6844Q405.47894 341.6844 405.08832 341.96564Q404.60394 342.34064 404.30707 343.04376Q404.02582 343.73126 404.0102 345.0125Q404.3852 344.4344 404.93207 344.15314Q405.49457 343.8719 406.10394 343.8719Q407.15082 343.8719 407.8852 344.65314Q408.6352 345.4344 408.6352 346.65314Q408.6352 347.46564 408.27582 348.16876Q407.93207 348.85626 407.3227 349.23126Q406.71332 349.59064 405.9477 349.59064Q404.61957 349.59064 403.79144 348.6219Q402.96332 347.65314 402.96332 345.4344Q402.96332 342.9344 403.8852 341.8094Q404.68207 340.825 406.04144 340.825Q407.05707 340.825 407.6977 341.40314Q408.35394 341.96564 408.47894 342.96564ZM404.18207 346.66876Q404.18207 347.21564 404.40082 347.71564Q404.6352 348.2 405.04144 348.46564Q405.46332 348.73126 405.93207 348.73126Q406.58832 348.73126 407.0727 348.2Q407.55707 347.65314 407.55707 346.73126Q407.55707 345.84064 407.0727 345.325Q406.60394 344.8094 405.8852 344.8094Q405.16644 344.8094 404.66644 345.325Q404.18207 345.84064 404.18207 346.66876Z" fill-rule="nonzero"/><path fill="#000000" d="M448.02042 347.1844L449.08292 347.04376Q449.2548 347.9344 449.6923 348.34064Q450.1298 348.73126 450.7548 348.73126Q451.5048 348.73126 452.02042 348.21564Q452.53604 347.7 452.53604 346.9344Q452.53604 346.21564 452.05167 345.7469Q451.58292 345.2625 450.84854 345.2625Q450.55167 345.2625 450.09854 345.3875L450.22354 344.45Q450.33292 344.46564 450.39542 344.46564Q451.0673 344.46564 451.59854 344.1219Q452.14542 343.7625 452.14542 343.02814Q452.14542 342.45 451.7548 342.075Q451.36417 341.6844 450.73917 341.6844Q450.1298 341.6844 449.70792 342.075Q449.30167 342.46564 449.1923 343.23126L448.1298 343.04376Q448.3173 341.9969 449.0048 341.41876Q449.6923 340.825 450.70792 340.825Q451.41104 340.825 452.0048 341.1375Q452.59854 341.4344 452.91104 341.95Q453.22354 342.46564 453.22354 343.0594Q453.22354 343.60626 452.92667 344.075Q452.6298 344.52814 452.05167 344.79376Q452.80167 344.96564 453.22354 345.52814Q453.64542 346.075 453.64542 346.91876Q453.64542 348.04376 452.8173 348.825Q452.0048 349.60626 450.7548 349.60626Q449.6298 349.60626 448.8798 348.9344Q448.1298 348.2469 448.02042 347.1844ZM460.5673 348.4344L460.5673 349.45L454.8798 349.45Q454.8798 349.075 455.0048 348.71564Q455.22354 348.1375 455.6923 347.575Q456.17667 347.0125 457.08292 346.27814Q458.48917 345.1219 458.97354 344.45Q459.47354 343.77814 459.47354 343.1844Q459.47354 342.5594 459.02042 342.1375Q458.5673 341.7 457.84854 341.7Q457.08292 341.7 456.6298 342.15314Q456.17667 342.60626 456.16104 343.41876L455.08292 343.3094Q455.1923 342.09064 455.91104 341.46564Q456.64542 340.825 457.8798 340.825Q459.11417 340.825 459.83292 341.5125Q460.55167 342.2 460.55167 343.21564Q460.55167 343.73126 460.33292 344.23126Q460.1298 344.71564 459.6298 345.27814Q459.14542 345.825 458.02042 346.77814Q457.0673 347.575 456.78604 347.8719Q456.52042 348.15314 456.34854 348.4344L460.5673 348.4344ZM462.08292 341.98126L462.08292 340.96564L467.64542 340.96564L467.64542 341.79376Q466.83292 342.66876 466.02042 344.1219Q465.22354 345.5594 464.78604 347.09064Q464.45792 348.16876 464.3798 349.45L463.28604 349.45Q463.30167 348.4344 463.67667 346.9969Q464.0673 345.5594 464.77042 344.23126Q465.48917 342.90314 466.30167 341.98126L462.08292 341.98126ZM474.48917 342.96564L473.4423 343.04376Q473.30167 342.41876 473.05167 342.1375Q472.61417 341.6844 471.98917 341.6844Q471.48917 341.6844 471.09854 341.96564Q470.61417 342.34064 470.3173 343.04376Q470.03604 343.73126 470.02042 345.0125Q470.39542 344.4344 470.9423 344.15314Q471.5048 343.8719 472.11417 343.8719Q473.16104 343.8719 473.89542 344.65314Q474.64542 345.4344 474.64542 346.65314Q474.64542 347.46564 474.28604 348.16876Q473.9423 348.85626 473.33292 349.23126Q472.72354 349.59064 471.95792 349.59064Q470.6298 349.59064 469.80167 348.6219Q468.97354 347.65314 468.97354 345.4344Q468.97354 342.9344 469.89542 341.8094Q470.6923 340.825 472.05167 340.825Q473.0673 340.825 473.70792 341.40314Q474.36417 341.96564 474.48917 342.96564ZM470.1923 346.66876Q470.1923 347.21564 470.41104 347.71564Q470.64542 348.2 471.05167 348.46564Q471.47354 348.73126 471.9423 348.73126Q472.59854 348.73126 473.08292 348.2Q473.5673 347.65314 473.5673 346.73126Q473.5673 345.84064 473.08292 345.325Q472.61417 344.8094 471.89542 344.8094Q471.17667 344.8094 470.67667 345.325Q470.1923 345.84064 470.1923 346.66876ZM477.64542 344.79376Q476.98917 344.54376 476.66104 344.10626Q476.34854 343.65314 476.34854 343.04376Q476.34854 342.10626 477.02042 341.46564Q477.70792 340.825 478.8173 340.825Q479.9423 340.825 480.6298 341.48126Q481.3173 342.1375 481.3173 343.075Q481.3173 343.66876 481.0048 344.10626Q480.6923 344.54376 480.05167 344.79376Q480.84854 345.04376 481.2548 345.6219Q481.66104 346.2 481.66104 346.9969Q481.66104 348.09064 480.8798 348.84064Q480.11417 349.59064 478.83292 349.59064Q477.5673 349.59064 476.78604 348.84064Q476.0048 348.09064 476.0048 346.96564Q476.0048 346.1219 476.42667 345.5594Q476.86417 344.9969 477.64542 344.79376ZM477.42667 342.9969Q477.42667 343.60626 477.8173 343.9969Q478.22354 344.3875 478.84854 344.3875Q479.45792 344.3875 479.84854 344.0125Q480.23917 343.6219 480.23917 343.0594Q480.23917 342.48126 479.83292 342.09064Q479.42667 341.6844 478.83292 341.6844Q478.22354 341.6844 477.8173 342.075Q477.42667 342.46564 477.42667 342.9969ZM477.09854 346.96564Q477.09854 347.41876 477.30167 347.84064Q477.52042 348.2625 477.9423 348.4969Q478.36417 348.73126 478.84854 348.73126Q479.59854 348.73126 480.08292 348.2469Q480.58292 347.7625 480.58292 347.0125Q480.58292 346.2469 480.08292 345.7469Q479.58292 345.2469 478.8173 345.2469Q478.0673 345.2469 477.58292 345.7469Q477.09854 346.23126 477.09854 346.96564Z" fill-rule="nonzero"/><path fill="#000000" d="M522.9994 342.96564L521.9525 343.04376Q521.8119 342.41876 521.5619 342.1375Q521.1244 341.6844 520.4994 341.6844Q519.9994 341.6844 519.60876 341.96564Q519.1244 342.34064 518.8275 343.04376Q518.54626 343.73126 518.53064 345.0125Q518.90564 344.4344 519.4525 344.15314Q520.015 343.8719 520.6244 343.8719Q521.67126 343.8719 522.40564 344.65314Q523.15564 345.4344 523.15564 346.65314Q523.15564 347.46564 522.79626 348.16876Q522.4525 348.85626 521.84314 349.23126Q521.23376 349.59064 520.46814 349.59064Q519.14 349.59064 518.3119 348.6219Q517.48376 347.65314 517.48376 345.4344Q517.48376 342.9344 518.40564 341.8094Q519.2025 340.825 520.5619 340.825Q521.5775 340.825 522.21814 341.40314Q522.8744 341.96564 522.9994 342.96564ZM518.7025 346.66876Q518.7025 347.21564 518.92126 347.71564Q519.15564 348.2 519.5619 348.46564Q519.98376 348.73126 520.4525 348.73126Q521.10876 348.73126 521.59314 348.2Q522.0775 347.65314 522.0775 346.73126Q522.0775 345.84064 521.59314 345.325Q521.1244 344.8094 520.40564 344.8094Q519.6869 344.8094 519.1869 345.325Q518.7025 345.84064 518.7025 346.66876ZM524.53064 347.2L525.64 347.10626Q525.765 347.91876 526.2025 348.325Q526.65564 348.73126 527.29626 348.73126Q528.04626 348.73126 528.5775 348.15314Q529.10876 347.575 529.10876 346.6375Q529.10876 345.73126 528.59314 345.21564Q528.09314 344.6844 527.265 344.6844Q526.765 344.6844 526.34314 344.91876Q525.9369 345.15314 525.7025 345.5125L524.71814 345.3875L525.54626 340.98126L529.8275 340.98126L529.8275 341.98126L526.39 341.98126L525.9369 344.29376Q526.7025 343.7469 527.54626 343.7469Q528.67126 343.7469 529.4369 344.52814Q530.21814 345.3094 530.21814 346.54376Q530.21814 347.7 529.54626 348.5594Q528.71814 349.59064 527.29626 349.59064Q526.1244 349.59064 525.3744 348.9344Q524.64 348.27814 524.53064 347.2ZM531.53064 347.2L532.64 347.10626Q532.765 347.91876 533.2025 348.325Q533.65564 348.73126 534.29626 348.73126Q535.04626 348.73126 535.5775 348.15314Q536.10876 347.575 536.10876 346.6375Q536.10876 345.73126 535.59314 345.21564Q535.09314 344.6844 534.265 344.6844Q533.765 344.6844 533.34314 344.91876Q532.9369 345.15314 532.7025 345.5125L531.71814 345.3875L532.54626 340.98126L536.8275 340.98126L536.8275 341.98126L533.39 341.98126L532.9369 344.29376Q533.7025 343.7469 534.54626 343.7469Q535.67126 343.7469 536.4369 344.52814Q537.21814 345.3094 537.21814 346.54376Q537.21814 347.7 536.54626 348.5594Q535.71814 349.59064 534.29626 349.59064Q533.1244 349.59064 532.3744 348.9344Q531.64 348.27814 531.53064 347.2ZM538.53064 347.1844L539.59314 347.04376Q539.765 347.9344 540.2025 348.34064Q540.64 348.73126 541.265 348.73126Q542.015 348.73126 542.53064 348.21564Q543.04626 347.7 543.04626 346.9344Q543.04626 346.21564 542.5619 345.7469Q542.09314 345.2625 541.35876 345.2625Q541.0619 345.2625 540.60876 345.3875L540.73376 344.45Q540.84314 344.46564 540.90564 344.46564Q541.5775 344.46564 542.10876 344.1219Q542.65564 343.7625 542.65564 343.02814Q542.65564 342.45 542.265 342.075Q541.8744 341.6844 541.2494 341.6844Q540.64 341.6844 540.21814 342.075Q539.8119 342.46564 539.7025 343.23126L538.64 343.04376Q538.8275 341.9969 539.515 341.41876Q540.2025 340.825 541.21814 340.825Q541.92126 340.825 542.515 341.1375Q543.10876 341.4344 543.42126 341.95Q543.73376 342.46564 543.73376 343.0594Q543.73376 343.60626 543.4369 344.075Q543.14 344.52814 542.5619 344.79376Q543.3119 344.96564 543.73376 345.52814Q544.15564 346.075 544.15564 346.91876Q544.15564 348.04376 543.3275 348.825Q542.515 349.60626 541.265 349.60626Q540.14 349.60626 539.39 348.9344Q538.64 348.2469 538.53064 347.1844ZM550.9994 342.96564L549.9525 343.04376Q549.8119 342.41876 549.5619 342.1375Q549.1244 341.6844 548.4994 341.6844Q547.9994 341.6844 547.60876 341.96564Q547.1244 342.34064 546.8275 343.04376Q546.54626 343.73126 546.53064 345.0125Q546.90564 344.4344 547.4525 344.15314Q548.015 343.8719 548.6244 343.8719Q549.67126 343.8719 550.40564 344.65314Q551.15564 345.4344 551.15564 346.65314Q551.15564 347.46564 550.79626 348.16876Q550.4525 348.85626 549.84314 349.23126Q549.23376 349.59064 548.46814 349.59064Q547.14 349.59064 546.3119 348.6219Q545.48376 347.65314 545.48376 345.4344Q545.48376 342.9344 546.40564 341.8094Q547.2025 340.825 548.5619 340.825Q549.5775 340.825 550.21814 341.40314Q550.8744 341.96564 550.9994 342.96564ZM546.7025 346.66876Q546.7025 347.21564 546.92126 347.71564Q547.15564 348.2 547.5619 348.46564Q547.98376 348.73126 548.4525 348.73126Q549.10876 348.73126 549.59314 348.2Q550.0775 347.65314 550.0775 346.73126Q550.0775 345.84064 549.59314 345.325Q549.1244 344.8094 548.40564 344.8094Q547.6869 344.8094 547.1869 345.325Q546.7025 345.84064 546.7025 346.66876Z" fill-rule="nonzero"/><path fill="#4285f4" d="M158.0 56.916668C158.0 56.364384 158.44771 55.916668 159.0 55.916668L169.0 55.916668C169.55229 55.916668 170.0 56.364384 170.0 56.916668L170.0 66.916664C170.0 67.46895 169.55229 67.916664 169.0 67.916664L159.0 67.916664C158.44771 67.916664 158.0 67.46895 158.0 66.916664Z" fill-rule="nonzero"/><path fill="#1a1a1a" d="M178.54688 63.15104L179.60938 63.05729Q179.6875 63.71354 179.96875 64.11979Q180.25 64.52604 180.82812 64.791664Q181.42188 65.041664 182.15625 65.041664Q182.79688 65.041664 183.29688 64.854164Q183.79688 64.65104 184.03125 64.322914Q184.28125 63.979164 184.28125 63.58854Q184.28125 63.18229 184.04688 62.885414Q183.8125 62.572914 183.28125 62.36979Q182.92188 62.229164 181.73438 61.947914Q180.5625 61.666664 180.09375 61.416664Q179.46875 61.08854 179.17188 60.61979Q178.875 60.135414 178.875 59.541664Q178.875 58.90104 179.23438 58.33854Q179.60938 57.760414 180.3125 57.479164Q181.03125 57.18229 181.89062 57.18229Q182.84375 57.18229 183.57812 57.49479Q184.3125 57.791664 184.70312 58.40104Q185.09375 58.99479 185.125 59.74479L184.03125 59.822914Q183.9375 59.010414 183.42188 58.604164Q182.92188 58.18229 181.9375 58.18229Q180.90625 58.18229 180.4375 58.55729Q179.96875 58.93229 179.96875 59.46354Q179.96875 59.93229 180.29688 60.229164Q180.625 60.52604 182.0 60.83854Q183.39062 61.15104 183.90625 61.385414Q184.65625 61.74479 185.01562 62.27604Q185.375 62.791664 185.375 63.49479Q185.375 64.18229 184.98438 64.791664Q184.59375 65.385414 183.85938 65.729164Q183.125 66.05729 182.20312 66.05729Q181.03125 66.05729 180.23438 65.729164Q179.45312 65.385414 179.0 64.697914Q178.5625 64.010414 178.54688 63.15104ZM189.09375 64.979164L189.25 65.90104Q188.79688 65.99479 188.45312 65.99479Q187.875 65.99479 187.5625 65.822914Q187.25 65.635414 187.10938 65.33854Q186.98438 65.041664 186.98438 64.08854L186.98438 60.510414L186.21875 60.510414L186.21875 59.697914L186.98438 59.697914L186.98438 58.15104L188.03125 57.52604L188.03125 59.697914L189.09375 59.697914L189.09375 60.510414L188.03125 60.510414L188.03125 64.15104Q188.03125 64.604164 188.07812 64.729164Q188.14062 64.854164 188.26562 64.93229Q188.39062 65.010414 188.625 65.010414Q188.8125 65.010414 189.09375 64.979164ZM193.82812 65.916664L193.82812 65.135414Q193.23438 66.05729 192.09375 66.05729Q191.34375 66.05729 190.71875 65.65104Q190.09375 65.229164 189.75 64.49479Q189.40625 63.760414 189.40625 62.80729Q189.40625 61.885414 189.71875 61.11979Q190.03125 60.354164 190.65625 59.96354Q191.28125 59.55729 192.04688 59.55729Q192.60938 59.55729 193.04688 59.791664Q193.48438 60.02604 193.76562 60.40104L193.76562 57.322914L194.8125 57.322914L194.8125 65.916664L193.82812 65.916664ZM190.5 62.80729Q190.5 64.010414 191.0 64.604164Q191.5 65.18229 192.1875 65.18229Q192.875 65.18229 193.35938 64.61979Q193.84375 64.05729 193.84375 62.90104Q193.84375 61.61979 193.34375 61.02604Q192.85938 60.43229 192.14062 60.43229Q191.4375 60.43229 190.96875 61.010414Q190.5 61.572914 190.5 62.80729ZM196.9375 65.916664L196.9375 57.322914L200.75 57.322914Q201.90625 57.322914 202.5 57.55729Q203.09375 57.791664 203.45312 58.385414Q203.8125 58.96354 203.8125 59.666664Q203.8125 60.58854 203.21875 61.21354Q202.625 61.83854 201.39062 62.010414Q201.84375 62.229164 202.07812 62.43229Q202.57812 62.885414 203.01562 63.572914L204.51562 65.916664L203.07812 65.916664L201.95312 64.135414Q201.45312 63.354164 201.125 62.947914Q200.8125 62.541664 200.54688 62.385414Q200.29688 62.21354 200.03125 62.135414Q199.84375 62.104164 199.40625 62.104164L198.07812 62.104164L198.07812 65.916664L196.9375 65.916664ZM198.07812 61.11979L200.53125 61.11979Q201.29688 61.11979 201.73438 60.96354Q202.1875 60.791664 202.40625 60.447914Q202.64062 60.08854 202.64062 59.666664Q202.64062 59.05729 202.1875 58.666664Q201.75 58.27604 200.79688 58.27604L198.07812 58.27604L198.07812 61.11979ZM209.85938 65.15104Q209.26562 65.65104 208.71875 65.854164Q208.1875 66.05729 207.5625 66.05729Q206.53125 66.05729 205.98438 65.55729Q205.4375 65.05729 205.4375 64.27604Q205.4375 63.822914 205.64062 63.447914Q205.84375 63.05729 206.1875 62.83854Q206.53125 62.604164 206.95312 62.49479Q207.25 62.40104 207.89062 62.322914Q209.15625 62.18229 209.76562 61.96354Q209.76562 61.74479 209.76562 61.697914Q209.76562 61.041664 209.46875 60.77604Q209.0625 60.43229 208.26562 60.43229Q207.53125 60.43229 207.17188 60.697914Q206.8125 60.947914 206.64062 61.604164L205.60938 61.46354Q205.75 60.80729 206.07812 60.40104Q206.40625 59.99479 207.01562 59.77604Q207.625 59.55729 208.42188 59.55729Q209.21875 59.55729 209.71875 59.74479Q210.21875 59.93229 210.45312 60.21354Q210.6875 60.49479 210.78125 60.93229Q210.82812 61.197914 210.82812 61.90104L210.82812 63.30729Q210.82812 64.77604 210.89062 65.166664Q210.96875 65.55729 211.17188 65.916664L210.0625 65.916664Q209.90625 65.58854 209.85938 65.15104ZM209.76562 62.791664Q209.1875 63.02604 208.04688 63.197914Q207.39062 63.291664 207.125 63.416664Q206.85938 63.52604 206.70312 63.74479Q206.5625 63.96354 206.5625 64.24479Q206.5625 64.666664 206.875 64.947914Q207.20312 65.229164 207.8125 65.229164Q208.42188 65.229164 208.89062 64.96354Q209.375 64.697914 209.59375 64.229164Q209.76562 63.86979 209.76562 63.18229L209.76562 62.791664ZM212.79688 65.916664L212.79688 59.697914L213.73438 59.697914L213.73438 60.572914Q214.42188 59.55729 215.71875 59.55729Q216.28125 59.55729 216.75 59.760414Q217.23438 59.96354 217.46875 60.291664Q217.70312 60.61979 217.79688 61.05729Q217.84375 61.354164 217.84375 62.08854L217.84375 65.916664L216.79688 65.916664L216.79688 62.135414Q216.79688 61.479164 216.67188 61.166664Q216.54688 60.854164 216.23438 60.666664Q215.92188 60.46354 215.5 60.46354Q214.82812 60.46354 214.32812 60.90104Q213.84375 61.322914 213.84375 62.510414L213.84375 65.916664L212.79688 65.916664ZM219.59375 66.43229L220.625 66.58854Q220.6875 67.05729 220.98438 67.27604Q221.375 67.572914 222.04688 67.572914Q222.78125 67.572914 223.17188 67.27604Q223.57812 66.979164 223.71875 66.46354Q223.8125 66.135414 223.79688 65.104164Q223.10938 65.916664 222.07812 65.916664Q220.79688 65.916664 220.09375 64.99479Q219.39062 64.05729 219.39062 62.77604Q219.39062 61.885414 219.70312 61.135414Q220.03125 60.36979 220.64062 59.96354Q221.25 59.55729 222.07812 59.55729Q223.1875 59.55729 223.90625 60.447914L223.90625 59.697914L224.875 59.697914L224.875 65.072914Q224.875 66.52604 224.57812 67.135414Q224.28125 67.74479 223.64062 68.08854Q223.0 68.447914 222.0625 68.447914Q220.95312 68.447914 220.26562 67.947914Q219.57812 67.447914 219.59375 66.43229ZM220.46875 62.697914Q220.46875 63.916664 220.95312 64.479164Q221.4375 65.041664 222.17188 65.041664Q222.90625 65.041664 223.39062 64.479164Q223.89062 63.916664 223.89062 62.729164Q223.89062 61.58854 223.375 61.010414Q222.875 60.43229 222.15625 60.43229Q221.45312 60.43229 220.95312 61.010414Q220.46875 61.572914 220.46875 62.697914ZM231.04688 63.916664L232.14062 64.041664Q231.89062 64.99479 231.1875 65.52604Q230.48438 66.05729 229.40625 66.05729Q228.04688 66.05729 227.23438 65.21354Q226.4375 64.36979 226.4375 62.854164Q226.4375 61.291664 227.25 60.43229Q228.0625 59.55729 229.34375 59.55729Q230.59375 59.55729 231.375 60.40104Q232.17188 61.24479 232.17188 62.791664Q232.17188 62.885414 232.17188 63.072914L227.53125 63.072914Q227.59375 64.104164 228.10938 64.65104Q228.625 65.18229 229.40625 65.18229Q229.98438 65.18229 230.39062 64.885414Q230.8125 64.572914 231.04688 63.916664ZM227.59375 62.21354L231.0625 62.21354Q231.0 61.416664 230.67188 61.02604Q230.15625 60.416664 229.35938 60.416664Q228.625 60.416664 228.125 60.90104Q227.64062 61.385414 227.59375 62.21354Z" fill-rule="nonzero"/><path fill="#ea4335" d="M249.0 56.916668C249.0 56.364384 249.44771 55.916668 250.0 55.916668L260.0 55.916668C260.55228 55.916668 261.0 56.364384 261.0 56.916668L261.0 66.916664C261.0 67.46895 260.55228 67.916664 260.0 67.916664L250.0 67.916664C249.44771 67.916664 249.0 67.46895 249.0 66.916664Z" fill-rule="nonzero"/><path fill="#1a1a1a" d="M269.9375 65.916664L269.9375 57.322914L273.75 57.322914Q274.90625 57.322914 275.5 57.55729Q276.09375 57.791664 276.45312 58.385414Q276.8125 58.96354 276.8125 59.666664Q276.8125 60.58854 276.21875 61.21354Q275.625 61.83854 274.39062 62.010414Q274.84375 62.229164 275.07812 62.43229Q275.57812 62.885414 276.01562 63.572914L277.51562 65.916664L276.07812 65.916664L274.95312 64.135414Q274.45312 63.354164 274.125 62.947914Q273.8125 62.541664 273.54688 62.385414Q273.29688 62.21354 273.03125 62.135414Q272.84375 62.104164 272.40625 62.104164L271.07812 62.104164L271.07812 65.916664L269.9375 65.916664ZM271.07812 61.11979L273.53125 61.11979Q274.29688 61.11979 274.73438 60.96354Q275.1875 60.791664 275.40625 60.447914Q275.64062 60.08854 275.64062 59.666664Q275.64062 59.05729 275.1875 58.666664Q274.75 58.27604 273.79688 58.27604L271.07812 58.27604L271.07812 61.11979ZM282.85938 65.15104Q282.26562 65.65104 281.71875 65.854164Q281.1875 66.05729 280.5625 66.05729Q279.53125 66.05729 278.98438 65.55729Q278.4375 65.05729 278.4375 64.27604Q278.4375 63.822914 278.64062 63.447914Q278.84375 63.05729 279.1875 62.83854Q279.53125 62.604164 279.95312 62.49479Q280.25 62.40104 280.89062 62.322914Q282.15625 62.18229 282.76562 61.96354Q282.76562 61.74479 282.76562 61.697914Q282.76562 61.041664 282.46875 60.77604Q282.0625 60.43229 281.26562 60.43229Q280.53125 60.43229 280.17188 60.697914Q279.8125 60.947914 279.64062 61.604164L278.60938 61.46354Q278.75 60.80729 279.07812 60.40104Q279.40625 59.99479 280.01562 59.77604Q280.625 59.55729 281.42188 59.55729Q282.21875 59.55729 282.71875 59.74479Q283.21875 59.93229 283.45312 60.21354Q283.6875 60.49479 283.78125 60.93229Q283.82812 61.197914 283.82812 61.90104L283.82812 63.30729Q283.82812 64.77604 283.89062 65.166664Q283.96875 65.55729 284.17188 65.916664L283.0625 65.916664Q282.90625 65.58854 282.85938 65.15104ZM282.76562 62.791664Q282.1875 63.02604 281.04688 63.197914Q280.39062 63.291664 280.125 63.416664Q279.85938 63.52604 279.70312 63.74479Q279.5625 63.96354 279.5625 64.24479Q279.5625 64.666664 279.875 64.947914Q280.20312 65.229164 280.8125 65.229164Q281.42188 65.229164 281.89062 64.96354Q282.375 64.697914 282.59375 64.229164Q282.76562 63.86979 282.76562 63.18229L282.76562 62.791664ZM285.79688 68.30729L285.79688 59.697914L286.75 59.697914L286.75 60.49479Q287.09375 60.02604 287.51562 59.791664Q287.95312 59.55729 288.5625 59.55729Q289.35938 59.55729 289.96875 59.96354Q290.57812 60.36979 290.875 61.11979Q291.1875 61.86979 291.1875 62.760414Q291.1875 63.71354 290.84375 64.479164Q290.51562 65.24479 289.85938 65.65104Q289.20312 66.05729 288.48438 66.05729Q287.95312 66.05729 287.53125 65.83854Q287.10938 65.604164 286.84375 65.27604L286.84375 68.30729L285.79688 68.30729ZM286.75 62.83854Q286.75 64.041664 287.23438 64.61979Q287.71875 65.18229 288.40625 65.18229Q289.10938 65.18229 289.60938 64.58854Q290.10938 63.99479 290.10938 62.74479Q290.10938 61.55729 289.625 60.979164Q289.14062 60.385414 288.45312 60.385414Q287.78125 60.385414 287.26562 61.010414Q286.75 61.635414 286.75 62.83854ZM292.79688 68.30729L292.79688 59.697914L293.75 59.697914L293.75 60.49479Q294.09375 60.02604 294.51562 59.791664Q294.95312 59.55729 295.5625 59.55729Q296.35938 59.55729 296.96875 59.96354Q297.57812 60.36979 297.875 61.11979Q298.1875 61.86979 298.1875 62.760414Q298.1875 63.71354 297.84375 64.479164Q297.51562 65.24479 296.85938 65.65104Q296.20312 66.05729 295.48438 66.05729Q294.95312 66.05729 294.53125 65.83854Q294.10938 65.604164 293.84375 65.27604L293.84375 68.30729L292.79688 68.30729ZM293.75 62.83854Q293.75 64.041664 294.23438 64.61979Q294.71875 65.18229 295.40625 65.18229Q296.10938 65.18229 296.60938 64.58854Q297.10938 63.99479 297.10938 62.74479Q297.10938 61.55729 296.625 60.979164Q296.14062 60.385414 295.45312 60.385414Q294.78125 60.385414 294.26562 61.010414Q293.75 61.635414 293.75 62.83854ZM304.04688 63.916664L305.14062 64.041664Q304.89062 64.99479 304.1875 65.52604Q303.48438 66.05729 302.40625 66.05729Q301.04688 66.05729 300.23438 65.21354Q299.4375 64.36979 299.4375 62.854164Q299.4375 61.291664 300.25 60.43229Q301.0625 59.55729 302.34375 59.55729Q303.59375 59.55729 304.375 60.40104Q305.17188 61.24479 305.17188 62.791664Q305.17188 62.885414 305.17188 63.072914L300.53125 63.072914Q300.59375 64.104164 301.10938 64.65104Q301.625 65.18229 302.40625 65.18229Q302.98438 65.18229 303.39062 64.885414Q303.8125 64.572914 304.04688 63.916664ZM300.59375 62.21354L304.0625 62.21354Q304.0 61.416664 303.67188 61.02604Q303.15625 60.416664 302.35938 60.416664Q301.625 60.416664 301.125 60.90104Q300.64062 61.385414 300.59375 62.21354ZM306.76562 65.916664L306.76562 57.322914L307.82812 57.322914L307.82812 65.916664L306.76562 65.916664Z" fill-rule="nonzero"/><path fill="#fbbc04" d="M325.0 56.916668C325.0 56.364384 325.44772 55.916668 326.0 55.916668L336.0 55.916668C336.55228 55.916668 337.0 56.364384 337.0 56.916668L337.0 66.916664C337.0 67.46895 336.55228 67.916664 336.0 67.916664L326.0 67.916664C325.44772 67.916664 325.0 67.46895 325.0 66.916664Z" fill-rule="nonzero"/><path fill="#1a1a1a" d="M345.96875 65.916664L345.96875 57.322914L347.09375 57.322914L347.09375 60.854164L351.5625 60.854164L351.5625 57.322914L352.70312 57.322914L352.70312 65.916664L351.5625 65.916664L351.5625 61.86979L347.09375 61.86979L347.09375 65.916664L345.96875 65.916664ZM358.85938 65.15104Q358.26562 65.65104 357.71875 65.854164Q357.1875 66.05729 356.5625 66.05729Q355.53125 66.05729 354.98438 65.55729Q354.4375 65.05729 354.4375 64.27604Q354.4375 63.822914 354.64062 63.447914Q354.84375 63.05729 355.1875 62.83854Q355.53125 62.604164 355.95312 62.49479Q356.25 62.40104 356.89062 62.322914Q358.15625 62.18229 358.76562 61.96354Q358.76562 61.74479 358.76562 61.697914Q358.76562 61.041664 358.46875 60.77604Q358.0625 60.43229 357.26562 60.43229Q356.53125 60.43229 356.17188 60.697914Q355.8125 60.947914 355.64062 61.604164L354.60938 61.46354Q354.75 60.80729 355.07812 60.40104Q355.40625 59.99479 356.01562 59.77604Q356.625 59.55729 357.42188 59.55729Q358.21875 59.55729 358.71875 59.74479Q359.21875 59.93229 359.45312 60.21354Q359.6875 60.49479 359.78125 60.93229Q359.82812 61.197914 359.82812 61.90104L359.82812 63.30729Q359.82812 64.77604 359.89062 65.166664Q359.96875 65.55729 360.17188 65.916664L359.0625 65.916664Q358.90625 65.58854 358.85938 65.15104ZM358.76562 62.791664Q358.1875 63.02604 357.04688 63.197914Q356.39062 63.291664 356.125 63.416664Q355.85938 63.52604 355.70312 63.74479Q355.5625 63.96354 355.5625 64.24479Q355.5625 64.666664 355.875 64.947914Q356.20312 65.229164 356.8125 65.229164Q357.42188 65.229164 357.89062 64.96354Q358.375 64.697914 358.59375 64.229164Q358.76562 63.86979 358.76562 63.18229L358.76562 62.791664ZM361.79688 65.916664L361.79688 59.697914L362.73438 59.697914L362.73438 60.572914Q363.42188 59.55729 364.71875 59.55729Q365.28125 59.55729 365.75 59.760414Q366.23438 59.96354 366.46875 60.291664Q366.70312 60.61979 366.79688 61.05729Q366.84375 61.354164 366.84375 62.08854L366.84375 65.916664L365.79688 65.916664L365.79688 62.135414Q365.79688 61.479164 365.67188 61.166664Q365.54688 60.854164 365.23438 60.666664Q364.92188 60.46354 364.5 60.46354Q363.82812 60.46354 363.32812 60.90104Q362.84375 61.322914 362.84375 62.510414L362.84375 65.916664L361.79688 65.916664ZM372.82812 65.916664L372.82812 65.135414Q372.23438 66.05729 371.09375 66.05729Q370.34375 66.05729 369.71875 65.65104Q369.09375 65.229164 368.75 64.49479Q368.40625 63.760414 368.40625 62.80729Q368.40625 61.885414 368.71875 61.11979Q369.03125 60.354164 369.65625 59.96354Q370.28125 59.55729 371.04688 59.55729Q371.60938 59.55729 372.04688 59.791664Q372.48438 60.02604 372.76562 60.40104L372.76562 57.322914L373.8125 57.322914L373.8125 65.916664L372.82812 65.916664ZM369.5 62.80729Q369.5 64.010414 370.0 64.604164Q370.5 65.18229 371.1875 65.18229Q371.875 65.18229 372.35938 64.61979Q372.84375 64.05729 372.84375 62.90104Q372.84375 61.61979 372.34375 61.02604Q371.85938 60.43229 371.14062 60.43229Q370.4375 60.43229 369.96875 61.010414Q369.5 61.572914 369.5 62.80729ZM376.9375 65.916664L375.03125 59.697914L376.125 59.697914L377.10938 63.291664L377.48438 64.61979Q377.51562 64.52604 377.8125 63.33854L378.79688 59.697914L379.875 59.697914L380.8125 63.30729L381.125 64.49479L381.48438 63.291664L382.54688 59.697914L383.57812 59.697914L381.625 65.916664L380.53125 65.916664L379.54688 62.18229L379.29688 61.135414L378.04688 65.916664L376.9375 65.916664ZM384.78125 65.916664L384.78125 59.697914L385.73438 59.697914L385.73438 60.635414Q386.09375 59.979164 386.39062 59.77604Q386.70312 59.55729 387.07812 59.55729Q387.60938 59.55729 388.15625 59.885414L387.79688 60.86979Q387.40625 60.635414 387.03125 60.635414Q386.67188 60.635414 386.39062 60.854164Q386.125 61.05729 386.01562 61.43229Q385.82812 61.99479 385.82812 62.65104L385.82812 65.916664L384.78125 65.916664ZM388.79688 58.541664L388.79688 57.322914L389.85938 57.322914L389.85938 58.541664L388.79688 58.541664ZM388.79688 65.916664L388.79688 59.697914L389.85938 59.697914L389.85938 65.916664L388.79688 65.916664ZM394.09375 64.979164L394.25 65.90104Q393.79688 65.99479 393.45312 65.99479Q392.875 65.99479 392.5625 65.822914Q392.25 65.635414 392.10938 65.33854Q391.98438 65.041664 391.98438 64.08854L391.98438 60.510414L391.21875 60.510414L391.21875 59.697914L391.98438 59.697914L391.98438 58.15104L393.03125 57.52604L393.03125 59.697914L394.09375 59.697914L394.09375 60.510414L393.03125 60.510414L393.03125 64.15104Q393.03125 64.604164 393.07812 64.729164Q393.14062 64.854164 393.26562 64.93229Q393.39062 65.010414 393.625 65.010414Q393.8125 65.010414 394.09375 64.979164ZM397.09375 64.979164L397.25 65.90104Q396.79688 65.99479 396.45312 65.99479Q395.875 65.99479 395.5625 65.822914Q395.25 65.635414 395.10938 65.33854Q394.98438 65.041664 394.98438 64.08854L394.98438 60.510414L394.21875 60.510414L394.21875 59.697914L394.98438 59.697914L394.98438 58.15104L396.03125 57.52604L396.03125 59.697914L397.09375 59.697914L397.09375 60.510414L396.03125 60.510414L396.03125 64.15104Q396.03125 64.604164 396.07812 64.729164Q396.14062 64.854164 396.26562 64.93229Q396.39062 65.010414 396.625 65.010414Q396.8125 65.010414 397.09375 64.979164ZM402.04688 63.916664L403.14062 64.041664Q402.89062 64.99479 402.1875 65.52604Q401.48438 66.05729 400.40625 66.05729Q399.04688 66.05729 398.23438 65.21354Q397.4375 64.36979 397.4375 62.854164Q397.4375 61.291664 398.25 60.43229Q399.0625 59.55729 400.34375 59.55729Q401.59375 59.55729 402.375 60.40104Q403.17188 61.24479 403.17188 62.791664Q403.17188 62.885414 403.17188 63.072914L398.53125 63.072914Q398.59375 64.104164 399.10938 64.65104Q399.625 65.18229 400.40625 65.18229Q400.98438 65.18229 401.39062 64.885414Q401.8125 64.572914 402.04688 63.916664ZM398.59375 62.21354L402.0625 62.21354Q402.0 61.416664 401.67188 61.02604Q401.15625 60.416664 400.35938 60.416664Q399.625 60.416664 399.125 60.90104Q398.64062 61.385414 398.59375 62.21354ZM404.79688 65.916664L404.79688 59.697914L405.73438 59.697914L405.73438 60.572914Q406.42188 59.55729 407.71875 59.55729Q408.28125 59.55729 408.75 59.760414Q409.23438 59.96354 409.46875 60.291664Q409.70312 60.61979 409.79688 61.05729Q409.84375 61.354164 409.84375 62.08854L409.84375 65.916664L408.79688 65.916664L408.79688 62.135414Q408.79688 61.479164 408.67188 61.166664Q408.54688 60.854164 408.23438 60.666664Q407.92188 60.46354 407.5 60.46354Q406.82812 60.46354 406.32812 60.90104Q405.84375 61.322914 405.84375 62.510414L405.84375 65.916664L404.79688 65.916664ZM414.875 65.916664L414.875 57.322914L416.01562 57.322914L416.01562 64.90104L420.25 64.90104L420.25 65.916664L414.875 65.916664ZM421.40625 62.80729Q421.40625 61.072914 422.35938 60.24479Q423.15625 59.55729 424.3125 59.55729Q425.59375 59.55729 426.40625 60.40104Q427.23438 61.229164 427.23438 62.71354Q427.23438 63.916664 426.875 64.604164Q426.51562 65.291664 425.8125 65.68229Q425.125 66.05729 424.3125 66.05729Q423.01562 66.05729 422.20312 65.229164Q421.40625 64.385414 421.40625 62.80729ZM422.48438 62.80729Q422.48438 63.99479 423.0 64.58854Q423.53125 65.18229 424.3125 65.18229Q425.10938 65.18229 425.625 64.58854Q426.14062 63.99479 426.14062 62.77604Q426.14062 61.61979 425.60938 61.02604Q425.09375 60.43229 424.3125 60.43229Q423.53125 60.43229 423.0 61.02604Q422.48438 61.604164 422.48438 62.80729ZM428.40625 62.80729Q428.40625 61.072914 429.35938 60.24479Q430.15625 59.55729 431.3125 59.55729Q432.59375 59.55729 433.40625 60.40104Q434.23438 61.229164 434.23438 62.71354Q434.23438 63.916664 433.875 64.604164Q433.51562 65.291664 432.8125 65.68229Q432.125 66.05729 431.3125 66.05729Q430.01562 66.05729 429.20312 65.229164Q428.40625 64.385414 428.40625 62.80729ZM429.48438 62.80729Q429.48438 63.99479 430.0 64.58854Q430.53125 65.18229 431.3125 65.18229Q432.10938 65.18229 432.625 64.58854Q433.14062 63.99479 433.14062 62.77604Q433.14062 61.61979 432.60938 61.02604Q432.09375 60.43229 431.3125 60.43229Q430.53125 60.43229 430.0 61.02604Q429.48438 61.604164 429.48438 62.80729ZM435.79688 68.30729L435.79688 59.697914L436.75 59.697914L436.75 60.49479Q437.09375 60.02604 437.51562 59.791664Q437.95312 59.55729 438.5625 59.55729Q439.35938 59.55729 439.96875 59.96354Q440.57812 60.36979 440.875 61.11979Q441.1875 61.86979 441.1875 62.760414Q441.1875 63.71354 440.84375 64.479164Q440.51562 65.24479 439.85938 65.65104Q439.20312 66.05729 438.48438 66.05729Q437.95312 66.05729 437.53125 65.83854Q437.10938 65.604164 436.84375 65.27604L436.84375 68.30729L435.79688 68.30729ZM436.75 62.83854Q436.75 64.041664 437.23438 64.61979Q437.71875 65.18229 438.40625 65.18229Q439.10938 65.18229 439.60938 64.58854Q440.10938 63.99479 440.10938 62.74479Q440.10938 61.55729 439.625 60.979164Q439.14062 60.385414 438.45312 60.385414Q437.78125 60.385414 437.26562 61.010414Q436.75 61.635414 436.75 62.83854Z" fill-rule="nonzero"/><path fill="#757575" d="M19.51875 30.58125Q19.51875 27.01875 21.425 25.003124Q23.346874 22.971874 26.378124 22.971874Q28.3625 22.971874 29.940624 23.925Q31.534374 24.878124 32.3625 26.58125Q33.20625 28.26875 33.20625 30.409374Q33.20625 32.58125 32.33125 34.3Q31.45625 36.01875 29.83125 36.909374Q28.221874 37.8 26.3625 37.8Q24.346874 37.8 22.753124 36.83125Q21.159374 35.846874 20.33125 34.159374Q19.51875 32.45625 19.51875 30.58125ZM21.471874 30.6125Q21.471874 33.190624 22.8625 34.690624Q24.253124 36.175 26.346874 36.175Q28.4875 36.175 29.8625 34.675Q31.253124 33.159374 31.253124 30.39375Q31.253124 28.659374 30.659374 27.3625Q30.08125 26.05 28.940624 25.33125Q27.8 24.6125 26.378124 24.6125Q24.378124 24.6125 22.925 26.003124Q21.471874 27.378124 21.471874 30.6125ZM35.8625 41.51875L35.8625 27.175L37.471874 27.175L37.471874 28.51875Q38.034374 27.7375 38.7375 27.346874Q39.45625 26.940624 40.471874 26.940624Q41.8 26.940624 42.815624 27.628124Q43.83125 28.315624 44.346874 29.565624Q44.878124 30.8 44.878124 32.284374Q44.878124 33.878124 44.3 35.159374Q43.7375 36.425 42.64375 37.1125Q41.55 37.784374 40.346874 37.784374Q39.471874 37.784374 38.76875 37.409374Q38.08125 37.034374 37.628124 36.471874L37.628124 41.51875L35.8625 41.51875ZM37.45625 32.425Q37.45625 34.425 38.26875 35.378124Q39.08125 36.33125 40.2375 36.33125Q41.409374 36.33125 42.2375 35.346874Q43.08125 34.3625 43.08125 32.26875Q43.08125 30.3 42.253124 29.315624Q41.440624 28.315624 40.315624 28.315624Q39.190624 28.315624 38.315624 29.378124Q37.45625 30.425 37.45625 32.425ZM50.70625 35.971874L50.95625 37.534374Q50.221874 37.690624 49.628124 37.690624Q48.675 37.690624 48.14375 37.39375Q47.628124 37.08125 47.409374 36.596874Q47.190624 36.096874 47.190624 34.51875L47.190624 28.55L45.909374 28.55L45.909374 27.175L47.190624 27.175L47.190624 24.6125L48.940624 23.55L48.940624 27.175L50.70625 27.175L50.70625 28.55L48.940624 28.55L48.940624 34.6125Q48.940624 35.3625 49.034374 35.58125Q49.128124 35.784374 49.33125 35.925Q49.55 36.05 49.940624 36.05Q50.221874 36.05 50.70625 35.971874ZM52.878124 25.253124L52.878124 23.2375L54.64375 23.2375L54.64375 25.253124L52.878124 25.253124ZM52.878124 37.55L52.878124 27.175L54.64375 27.175L54.64375 37.55L52.878124 37.55ZM56.8625 37.55L56.8625 27.175L58.440624 27.175L58.440624 28.628124Q58.925 27.878124 59.7375 27.409374Q60.55 26.940624 61.58125 26.940624Q62.7375 26.940624 63.471874 27.425Q64.20625 27.89375 64.51875 28.753124Q65.75313 26.940624 67.72188 26.940624Q69.26875 26.940624 70.09688 27.8Q70.925 28.659374 70.925 30.425L70.925 37.55L69.175 37.55L69.175 31.01875Q69.175 29.95625 69.00313 29.503124Q68.83125 29.034374 68.37813 28.753124Q67.94063 28.471874 67.33125 28.471874Q66.2375 28.471874 65.50313 29.20625Q64.78438 29.925 64.78438 31.51875L64.78438 37.55L63.034374 37.55L63.034374 30.815624Q63.034374 29.64375 62.596874 29.065624Q62.175 28.471874 61.190624 28.471874Q60.45625 28.471874 59.815624 28.8625Q59.190624 29.253124 58.909374 30.003124Q58.628124 30.753124 58.628124 32.175L58.628124 37.55L56.8625 37.55ZM72.87813 25.253124L72.87813 23.2375L74.64375 23.2375L74.64375 25.253124L72.87813 25.253124ZM72.87813 37.55L72.87813 27.175L74.64375 27.175L74.64375 37.55L72.87813 37.55ZM75.94063 37.55L75.94063 36.128124L82.55 28.55Q81.425 28.596874 80.56563 28.596874L76.33125 28.596874L76.33125 27.175L84.81563 27.175L84.81563 28.346874L79.19063 34.925L78.1125 36.128124Q79.28438 36.034374 80.33125 36.034374L85.12813 36.034374L85.12813 37.55L75.94063 37.55ZM92.97188 34.20625L94.78438 34.440624Q94.3625 36.01875 93.19063 36.909374Q92.03438 37.784374 90.22188 37.784374Q87.95625 37.784374 86.6125 36.39375Q85.28438 34.9875 85.28438 32.45625Q85.28438 29.83125 86.62813 28.39375Q87.97188 26.940624 90.12813 26.940624Q92.20625 26.940624 93.51875 28.3625Q94.84688 29.76875 94.84688 32.346874Q94.84688 32.503124 94.83125 32.815624L87.09688 32.815624Q87.19063 34.51875 88.06563 35.425Q88.94063 36.33125 90.2375 36.33125Q91.20625 36.33125 91.87813 35.83125Q92.56563 35.315624 92.97188 34.20625ZM87.19063 31.3625L92.9875 31.3625Q92.87813 30.065624 92.33125 29.409374Q91.4875 28.39375 90.14375 28.39375Q88.94063 28.39375 88.1125 29.20625Q87.28438 30.003124 87.19063 31.3625ZM103.59688 37.55L103.59688 36.2375Q102.6125 37.784374 100.69063 37.784374Q99.45625 37.784374 98.40938 37.096874Q97.37813 36.409374 96.8 35.190624Q96.2375 33.971874 96.2375 32.378124Q96.2375 30.815624 96.75313 29.55Q97.26875 28.284374 98.3 27.6125Q99.34688 26.940624 100.6125 26.940624Q101.55 26.940624 102.28438 27.346874Q103.01875 27.7375 103.4875 28.3625L103.4875 23.2375L105.22188 23.2375L105.22188 37.55L103.59688 37.55ZM98.03438 32.378124Q98.03438 34.3625 98.87813 35.346874Q99.72188 36.33125 100.8625 36.33125Q102.01875 36.33125 102.81563 35.39375Q103.62813 34.45625 103.62813 32.51875Q103.62813 30.39375 102.8 29.39375Q101.9875 28.39375 100.78438 28.39375Q99.6125 28.39375 98.81563 29.3625Q98.03438 30.315624 98.03438 32.378124Z" fill-rule="nonzero"/></svg>