<svg version="1.1" viewBox="0.0 0.0 600.0 371.0" fill="none" stroke="none" stroke-linecap="square" stroke-miterlimit="10" width="600" height="371" xmlns:xlink="http://www.w3.org/1999/xlink" xmlns="http://www.w3.org/2000/svg"><path fill="#ffffff" d="M0 0L600.0 0L600.0 371.0L0 371.0L0 0Z" fill-rule="nonzero"/><path stroke="#cccccc" stroke-width="1.0" stroke-linecap="butt" d="M70.5 299.5L581.5 299.5" fill-rule="nonzero"/><path stroke="#cccccc" stroke-width="1.0" stroke-linecap="butt" d="M70.5 232.5L581.5 232.5" fill-rule="nonzero"/><path stroke="#cccccc" stroke-width="1.0" stroke-linecap="butt" d="M70.5 166.5L581.5 166.5" fill-rule="nonzero"/><path stroke="#cccccc" stroke-width="1.0" stroke-linecap="butt" d="M70.5 99.5L581.5 99.5" fill-rule="nonzero"/><clipPath id="id_0"><path d="M70.55 88.28333L581.45 88.28333L581.45 332.45L70.55 332.45L70.55 88.28333Z" clip-rule="nonzero"/></clipPath><path stroke="#000000" stroke-width="2.0" stroke-linecap="butt" stroke-opacity="0.0" clip-path="url(#id_0)" d="M109.0 332.0L96.0 332.0L96.0 228.0C96.0 226.89543 96.89543 226.0 98.0 226.0L107.0 226.0C108.10457 226.0 109.0 226.89543 109.0 228.0Z" fill-rule="nonzero"/><path fill="#4285f4" clip-path="url(#id_0)" d="M109.0 332.0L96.0 332.0L96.0 228.0C96.0 226.89543 96.89543 226.0 98.0 226.0L107.0 226.0C108.10457 226.0 109.0 226.89543 109.0 228.0Z" fill-rule="nonzero"/><path stroke="#000000" stroke-width="2.0" stroke-linecap="butt" stroke-opacity="0.0" clip-path="url(#id_0)" d="M179.0 332.0L166.0 332.0L166.0 214.0C166.0 212.89543 166.89543 212.0 168.0 212.0L177.0 212.0C178.10457 212.0 179.0 212.89543 179.0 214.0Z" fill-rule="nonzero"/><path fill="#4285f4" clip-path="url(#id_0)" d="M179.0 332.0L166.0 332.0L166.0 214.0C166.0 212.89543 166.89543 212.0 168.0 212.0L177.0 212.0C178.10457 212.0 179.0 212.89543 179.0 214.0Z" fill-rule="nonzero"/><path stroke="#000000" stroke-width="2.0" stroke-linecap="butt" stroke-opacity="0.0" clip-path="url(#id_0)" d="M248.0 332.0L235.0 332.0L235.0 189.0C235.0 187.89543 235.89543 187.0 237.0 187.0L246.0 187.0C247.10457 187.0 248.0 187.89543 248.0 189.0Z" fill-rule="nonzero"/><path fill="#4285f4" clip-path="url(#id_0)" d="M248.0 332.0L235.0 332.0L235.0 189.0C235.0 187.89543 235.89543 187.0 237.0 187.0L246.0 187.0C247.10457 187.0 248.0 187.89543 248.0 189.0Z" fill-rule="nonzero"/><path stroke="#000000" stroke-width="2.0" stroke-linecap="butt" stroke-opacity="0.0" clip-path="url(#id_0)" d="M318.0 332.0L305.0 332.0L305.0 160.0C305.0 158.89543 305.89542 158.0 307.0 158.0L316.0 158.0C317.10458 158.0 318.0 158.89543 318.0 160.0Z" fill-rule="nonzero"/><path fill="#4285f4" clip-path="url(#id_0)" d="M318.0 332.0L305.0 332.0L305.0 160.0C305.0 158.89543 305.89542 158.0 307.0 158.0L316.0 158.0C317.10458 158.0 318.0 158.89543 318.0 160.0Z" fill-rule="nonzero"/><path stroke="#000000" stroke-width="2.0" stroke-linecap="butt" stroke-opacity="0.0" clip-path="url(#id_0)" d="M388.0 332.0L375.0 332.0L375.0 130.0C375.0 128.89543 375.89542 128.0 377.0 128.0L386.0 128.0C387.10458 128.0 388.0 128.89543 388.0 130.0Z" fill-rule="nonzero"/><path fill="#4285f4" clip-path="url(#id_0)" d="M388.0 332.0L375.0 332.0L375.0 130.0C375.0 128.89543 375.89542 128.0 377.0 128.0L386.0 128.0C387.10458 128.0 388.0 128.89543 388.0 130.0Z" fill-rule="nonzero"/><path stroke="#000000" stroke-width="2.0" stroke-linecap="butt" stroke-opacity="0.0" clip-path="url(#id_0)" d="M457.0 332.0L444.0 332.0L444.0 100.0C444.0 98.89543 444.89542 98.0 446.0 98.0L455.0 98.0C456.10458 98.0 457.0 98.89543 457.0 100.0Z" fill-rule="nonzero"/><path fill="#4285f4" clip-path="url(#id_0)" d="M457.0 332.0L444.0 332.0L444.0 100.0C444.0 98.89543 444.89542 98.0 446.0 98.0L455.0 98.0C456.10458 98.0 457.0 98.89543 457.0 100.0Z" fill-rule="nonzero"/><path stroke="#000000" stroke-width="2.0" stroke-linecap="butt" stroke-opacity="0.0" clip-path="url(#id_0)" d="M527.0 332.0L514.0 332.0L514.0 90.0C514.0 88.89543 514.89545 88.0 516.0 88.0L525.0 88.0C526.10455 88.0 527.0 88.89543 527.0 90.0Z" fill-rule="nonzero"/><path fill="#4285f4" clip-path="url(#id_0)" d="M527.0 332.0L514.0 332.0L514.0 90.0C514.0 88.89543 514.89545 88.0 516.0 88.0L525.0 88.0C526.10455 88.0 527.0 88.89543 527.0 90.0Z" fill-rule="nonzero"/><path stroke="#000000" stroke-width="2.0" stroke-linecap="butt" stroke-opacity="0.0" clip-path="url(#id_0)" d="M124.0 332.0L111.0 332.0L111.0 243.0C111.0 241.89543 111.89543 241.0 113.0 241.0L122.0 241.0C123.10457 241.0 124.0 241.89543 124.0 243.0Z" fill-rule="nonzero"/><path fill="#ea4335" clip-path="url(#id_0)" d="M124.0 332.0L111.0 332.0L111.0 243.0C111.0 241.89543 111.89543 241.0 113.0 241.0L122.0 241.0C123.10457 241.0 124.0 241.89543 124.0 243.0Z" fill-rule="nonzero"/><path stroke="#000000" stroke-width="2.0" stroke-linecap="butt" stroke-opacity="0.0" clip-path="url(#id_0)" d="M194.0 332.0L181.0 332.0L181.0 228.0C181.0 226.89543 181.89543 226.0 183.0 226.0L192.0 226.0C193.10457 226.0 194.0 226.89543 194.0 228.0Z" fill-rule="nonzero"/><path fill="#ea4335" clip-path="url(#id_0)" d="M194.0 332.0L181.0 332.0L181.0 228.0C181.0 226.89543 181.89543 226.0 183.0 226.0L192.0 226.0C193.10457 226.0 194.0 226.89543 194.0 228.0Z" fill-rule="nonzero"/><path stroke="#000000" stroke-width="2.0" stroke-linecap="butt" stroke-opacity="0.0" clip-path="url(#id_0)" d="M263.0 332.0L250.0 332.0L250.0 203.0C250.0 201.89543 250.89543 201.0 252.0 201.0L261.0 201.0C262.10458 201.0 263.0 201.89543 263.0 203.0Z" fill-rule="nonzero"/><path fill="#ea4335" clip-path="url(#id_0)" d="M263.0 332.0L250.0 332.0L250.0 203.0C250.0 201.89543 250.89543 201.0 252.0 201.0L261.0 201.0C262.10458 201.0 263.0 201.89543 263.0 203.0Z" fill-rule="nonzero"/><path stroke="#000000" stroke-width="2.0" stroke-linecap="butt" stroke-opacity="0.0" clip-path="url(#id_0)" d="M333.0 332.0L320.0 332.0L320.0 176.0C320.0 174.89543 320.89542 174.0 322.0 174.0L331.0 174.0C332.10458 174.0 333.0 174.89543 333.0 176.0Z" fill-rule="nonzero"/><path fill="#ea4335" clip-path="url(#id_0)" d="M333.0 332.0L320.0 332.0L320.0 176.0C320.0 174.89543 320.89542 174.0 322.0 174.0L331.0 174.0C332.10458 174.0 333.0 174.89543 333.0 176.0Z" fill-rule="nonzero"/><path stroke="#000000" stroke-width="2.0" stroke-linecap="butt" stroke-opacity="0.0" clip-path="url(#id_0)" d="M403.0 332.0L390.0 332.0L390.0 146.0C390.0 144.89543 390.89542 144.0 392.0 144.0L401.0 144.0C402.10458 144.0 403.0 144.89543 403.0 146.0Z" fill-rule="nonzero"/><path fill="#ea4335" clip-path="url(#id_0)" d="M403.0 332.0L390.0 332.0L390.0 146.0C390.0 144.89543 390.89542 144.0 392.0 144.0L401.0 144.0C402.10458 144.0 403.0 144.89543 403.0 146.0Z" fill-rule="nonzero"/><path stroke="#000000" stroke-width="2.0" stroke-linecap="butt" stroke-opacity="0.0" clip-path="url(#id_0)" d="M472.0 332.0L459.0 332.0L459.0 117.0C459.0 115.89543 459.89542 115.0 461.0 115.0L470.0 115.0C471.10458 115.0 472.0 115.89543 472.0 117.0Z" fill-rule="nonzero"/><path fill="#ea4335" clip-path="url(#id_0)" d="M472.0 332.0L459.0 332.0L459.0 117.0C459.0 115.89543 459.89542 115.0 461.0 115.0L470.0 115.0C471.10458 115.0 472.0 115.89543 472.0 117.0Z" fill-rule="nonzero"/><path stroke="#000000" stroke-width="2.0" stroke-linecap="butt" stroke-opacity="0.0" clip-path="url(#id_0)" d="M542.0 332.0L529.0 332.0L529.0 106.0C529.0 104.89543 529.89545 104.0 531.0 104.0L540.0 104.0C541.10455 104.0 542.0 104.89543 542.0 106.0Z" fill-rule="nonzero"/><path fill="#ea4335" clip-path="url(#id_0)" d="M542.0 332.0L529.0 332.0L529.0 106.0C529.0 104.89543 529.89545 104.0 531.0 104.0L540.0 104.0C541.10455 104.0 542.0 104.89543 542.0 106.0Z" fill-rule="nonzero"/><path stroke="#000000" stroke-width="2.0" stroke-linecap="butt" stroke-opacity="0.0" clip-path="url(#id_0)" d="M139.0 332.0L126.0 332.0L126.0 275.0C126.0 273.89542 126.89543 273.0 128.0 273.0L137.0 273.0C138.10457 273.0 139.0 273.89542 139.0 275.0Z" fill-rule="nonzero"/><path fill="#fbbc04" clip-path="url(#id_0)" d="M139.0 332.0L126.0 332.0L126.0 275.0C126.0 273.89542 126.89543 273.0 128.0 273.0L137.0 273.0C138.10457 273.0 139.0 273.89542 139.0 275.0Z" fill-rule="nonzero"/><path stroke="#000000" stroke-width="2.0" stroke-linecap="butt" stroke-opacity="0.0" clip-path="url(#id_0)" d="M209.0 332.0L196.0 332.0L196.0 245.0C196.0 243.89543 196.89543 243.0 198.0 243.0L207.0 243.0C208.10457 243.0 209.0 243.89543 209.0 245.0Z" fill-rule="nonzero"/><path fill="#fbbc04" clip-path="url(#id_0)" d="M209.0 332.0L196.0 332.0L196.0 245.0C196.0 243.89543 196.89543 243.0 198.0 243.0L207.0 243.0C208.10457 243.0 209.0 243.89543 209.0 245.0Z" fill-rule="nonzero"/><path stroke="#000000" stroke-width="2.0" stroke-linecap="butt" stroke-opacity="0.0" clip-path="url(#id_0)" d="M278.0 332.0L265.0 332.0L265.0 218.0C265.0 216.89543 265.89542 216.0 267.0 216.0L276.0 216.0C277.10458 216.0 278.0 216.89543 278.0 218.0Z" fill-rule="nonzero"/><path fill="#fbbc04" clip-path="url(#id_0)" d="M278.0 332.0L265.0 332.0L265.0 218.0C265.0 216.89543 265.89542 216.0 267.0 216.0L276.0 216.0C277.10458 216.0 278.0 216.89543 278.0 218.0Z" fill-rule="nonzero"/><path stroke="#000000" stroke-width="2.0" stroke-linecap="butt" stroke-opacity="0.0" clip-path="url(#id_0)" d="M348.0 332.0L335.0 332.0L335.0 195.0C335.0 193.89543 335.89542 193.0 337.0 193.0L346.0 193.0C347.10458 193.0 348.0 193.89543 348.0 195.0Z" fill-rule="nonzero"/><path fill="#fbbc04" clip-path="url(#id_0)" d="M348.0 332.0L335.0 332.0L335.0 195.0C335.0 193.89543 335.89542 193.0 337.0 193.0L346.0 193.0C347.10458 193.0 348.0 193.89543 348.0 195.0Z" fill-rule="nonzero"/><path stroke="#000000" stroke-width="2.0" stroke-linecap="butt" stroke-opacity="0.0" clip-path="url(#id_0)" d="M418.0 332.0L405.0 332.0L405.0 167.0C405.0 165.89543 405.89542 165.0 407.0 165.0L416.0 165.0C417.10458 165.0 418.0 165.89543 418.0 167.0Z" fill-rule="nonzero"/><path fill="#fbbc04" clip-path="url(#id_0)" d="M418.0 332.0L405.0 332.0L405.0 167.0C405.0 165.89543 405.89542 165.0 407.0 165.0L416.0 165.0C417.10458 165.0 418.0 165.89543 418.0 167.0Z" fill-rule="nonzero"/><path stroke="#000000" stroke-width="2.0" stroke-linecap="butt" stroke-opacity="0.0" clip-path="url(#id_0)" d="M487.0 332.0L474.0 332.0L474.0 137.0C474.0 135.89543 474.89542 135.0 476.0 135.0L485.0 135.0C486.10458 135.0 487.0 135.89543 487.0 137.0Z" fill-rule="nonzero"/><path fill="#fbbc04" clip-path="url(#id_0)" d="M487.0 332.0L474.0 332.0L474.0 137.0C474.0 135.89543 474.89542 135.0 476.0 135.0L485.0 135.0C486.10458 135.0 487.0 135.89543 487.0 137.0Z" fill-rule="nonzero"/><path stroke="#000000" stroke-width="2.0" stroke-linecap="butt" stroke-opacity="0.0" clip-path="url(#id_0)" d="M557.0 332.0L544.0 332.0L544.0 127.0C544.0 125.89543 544.89545 125.0 546.0 125.0L555.0 125.0C556.10455 125.0 557.0 125.89543 557.0 127.0Z" fill-rule="nonzero"/><path fill="#fbbc04" clip-path="url(#id_0)" d="M557.0 332.0L544.0 332.0L544.0 127.0C544.0 125.89543 544.89545 125.0 546.0 125.0L555.0 125.0C556.10455 125.0 557.0 125.89543 557.0 127.0Z" fill-rule="nonzero"/><path fill="#000000" d="M23.01875 303.21356L21.971874 303.21356L21.971874 296.4948Q21.58125 296.8542 20.95625 297.2292Q20.346874 297.58856 19.8625 297.76044L19.8625 296.7448Q20.7375 296.32294 21.39375 295.7448Q22.065624 295.15106 22.346874 294.58856L23.01875 294.58856L23.01875 303.21356ZM26.64375 303.21356L26.64375 302.01044L27.846874 302.01044L27.846874 303.21356L26.64375 303.21356ZM29.05 298.9792Q29.05 297.44794 29.3625 296.52606Q29.675 295.58856 30.284374 295.08856Q30.909374 294.58856 31.846874 294.58856Q32.534374 294.58856 33.05 294.8698Q33.58125 295.15106 33.925 295.6823Q34.26875 296.19794 34.45625 296.94794Q34.64375 297.69794 34.64375 298.9792Q34.64375 300.4948 34.33125 301.4167Q34.034374 302.33856 33.409374 302.8542Q32.8 303.3542 31.846874 303.3542Q30.6125 303.3542 29.89375 302.46356Q29.05 301.40106 29.05 298.9792ZM30.128124 298.9792Q30.128124 301.08856 30.628124 301.7917Q31.128124 302.4948 31.846874 302.4948Q32.58125 302.4948 33.065624 301.7917Q33.565624 301.08856 33.565624 298.9792Q33.565624 296.8542 33.065624 296.1667Q32.58125 295.46356 31.83125 295.46356Q31.1125 295.46356 30.675 296.07294Q30.128124 296.8542 30.128124 298.9792ZM36.05 298.9792Q36.05 297.44794 36.3625 296.52606Q36.675 295.58856 37.284374 295.08856Q37.909374 294.58856 38.846874 294.58856Q39.534374 294.58856 40.05 294.8698Q40.58125 295.15106 40.925 295.6823Q41.26875 296.19794 41.45625 296.94794Q41.64375 297.69794 41.64375 298.9792Q41.64375 300.4948 41.33125 301.4167Q41.034374 302.33856 40.409374 302.8542Q39.8 303.3542 38.846874 303.3542Q37.6125 303.3542 36.89375 302.46356Q36.05 301.40106 36.05 298.9792ZM37.128124 298.9792Q37.128124 301.08856 37.628124 301.7917Q38.128124 302.4948 38.846874 302.4948Q39.58125 302.4948 40.065624 301.7917Q40.565624 301.08856 40.565624 298.9792Q40.565624 296.8542 40.065624 296.1667Q39.58125 295.46356 38.83125 295.46356Q38.1125 295.46356 37.675 296.07294Q37.128124 296.8542 37.128124 298.9792ZM43.503124 303.21356L43.503124 294.6198L49.70625 294.6198L49.70625 295.63544L44.64375 295.63544L44.64375 298.26044L49.39375 298.26044L49.39375 299.27606L44.64375 299.27606L44.64375 302.19794L49.909374 302.19794L49.909374 303.21356L43.503124 303.21356ZM53.55 301.82294L53.55 299.46356L51.221874 299.46356L51.221874 298.4792L53.55 298.4792L53.55 296.15106L54.55 296.15106L54.55 298.4792L56.89375 298.4792L56.89375 299.46356L54.55 299.46356L54.55 301.82294L53.55 301.82294ZM62.01875 303.21356L60.971874 303.21356L60.971874 296.4948Q60.58125 296.8542 59.95625 297.2292Q59.346874 297.58856 58.8625 297.76044L58.8625 296.7448Q59.7375 296.32294 60.39375 295.7448Q61.065624 295.15106 61.346874 294.58856L62.01875 294.58856L62.01875 303.21356Z" fill-rule="nonzero"/><path fill="#000000" d="M23.01875 236.74066L21.971874 236.74066L21.971874 230.02191Q21.58125 230.38129 20.95625 230.75629Q20.346874 231.11566 19.8625 231.28754L19.8625 230.27191Q20.7375 229.85004 21.39375 229.27191Q22.065624 228.67816 22.346874 228.11566L23.01875 228.11566L23.01875 236.74066ZM26.64375 236.74066L26.64375 235.53754L27.846874 235.53754L27.846874 236.74066L26.64375 236.74066ZM29.05 232.50629Q29.05 230.97504 29.3625 230.05316Q29.675 229.11566 30.284374 228.61566Q30.909374 228.11566 31.846874 228.11566Q32.534374 228.11566 33.05 228.39691Q33.58125 228.67816 33.925 229.20941Q34.26875 229.72504 34.45625 230.47504Q34.64375 231.22504 34.64375 232.50629Q34.64375 234.02191 34.33125 234.94379Q34.034374 235.86566 33.409374 236.38129Q32.8 236.88129 31.846874 236.88129Q30.6125 236.88129 29.89375 235.99066Q29.05 234.92816 29.05 232.50629ZM30.128124 232.50629Q30.128124 234.61566 30.628124 235.31879Q31.128124 236.02191 31.846874 236.02191Q32.58125 236.02191 33.065624 235.31879Q33.565624 234.61566 33.565624 232.50629Q33.565624 230.38129 33.065624 229.69379Q32.58125 228.99066 31.83125 228.99066Q31.1125 228.99066 30.675 229.60004Q30.128124 230.38129 30.128124 232.50629ZM36.05 232.50629Q36.05 230.97504 36.3625 230.05316Q36.675 229.11566 37.284374 228.61566Q37.909374 228.11566 38.846874 228.11566Q39.534374 228.11566 40.05 228.39691Q40.58125 228.67816 40.925 229.20941Q41.26875 229.72504 41.45625 230.47504Q41.64375 231.22504 41.64375 232.50629Q41.64375 234.02191 41.33125 234.94379Q41.034374 235.86566 40.409374 236.38129Q39.8 236.88129 38.846874 236.88129Q37.6125 236.88129 36.89375 235.99066Q36.05 234.92816 36.05 232.50629ZM37.128124 232.50629Q37.128124 234.61566 37.628124 235.31879Q38.128124 236.02191 38.846874 236.02191Q39.58125 236.02191 40.065624 235.31879Q40.565624 234.61566 40.565624 232.50629Q40.565624 230.38129 40.065624 229.69379Q39.58125 228.99066 38.83125 228.99066Q38.1125 228.99066 37.675 229.60004Q37.128124 230.38129 37.128124 232.50629ZM43.503124 236.74066L43.503124 228.14691L49.70625 228.14691L49.70625 229.16254L44.64375 229.16254L44.64375 231.78754L49.39375 231.78754L49.39375 232.80316L44.64375 232.80316L44.64375 235.72504L49.909374 235.72504L49.909374 236.74066L43.503124 236.74066ZM53.55 235.35004L53.55 232.99066L51.221874 232.99066L51.221874 232.00629L53.55 232.00629L53.55 229.67816L54.55 229.67816L54.55 232.00629L56.89375 232.00629L56.89375 232.99066L54.55 232.99066L54.55 235.35004L53.55 235.35004ZM58.05 234.47504L59.1125 234.33441Q59.284374 235.22504 59.721874 235.63129Q60.159374 236.02191 60.784374 236.02191Q61.534374 236.02191 62.05 235.50629Q62.565624 234.99066 62.565624 234.22504Q62.565624 233.50629 62.08125 233.03754Q61.6125 232.55316 60.878124 232.55316Q60.58125 232.55316 60.128124 232.67816L60.253124 231.74066Q60.3625 231.75629 60.425 231.75629Q61.096874 231.75629 61.628124 231.41254Q62.175 231.05316 62.175 230.31879Q62.175 229.74066 61.784374 229.36566Q61.39375 228.97504 60.76875 228.97504Q60.159374 228.97504 59.7375 229.36566Q59.33125 229.75629 59.221874 230.52191L58.159374 230.33441Q58.346874 229.28754 59.034374 228.70941Q59.721874 228.11566 60.7375 228.11566Q61.440624 228.11566 62.034374 228.42816Q62.628124 228.72504 62.940624 229.24066Q63.253124 229.75629 63.253124 230.35004Q63.253124 230.89691 62.95625 231.36566Q62.659374 231.81879 62.08125 232.08441Q62.83125 232.25629 63.253124 232.81879Q63.675 233.36566 63.675 234.20941Q63.675 235.33441 62.846874 236.11566Q62.034374 236.89691 60.784374 236.89691Q59.659374 236.89691 58.909374 236.22504Q58.159374 235.53754 58.05 234.47504Z" fill-rule="nonzero"/><path fill="#000000" d="M23.01875 170.26776L21.971874 170.26776L21.971874 163.54901Q21.58125 163.90839 20.95625 164.28339Q20.346874 164.64276 19.8625 164.81464L19.8625 163.79901Q20.7375 163.37714 21.39375 162.79901Q22.065624 162.20526 22.346874 161.64276L23.01875 161.64276L23.01875 170.26776ZM26.64375 170.26776L26.64375 169.06464L27.846874 169.06464L27.846874 170.26776L26.64375 170.26776ZM29.05 166.03339Q29.05 164.50214 29.3625 163.58026Q29.675 162.64276 30.284374 162.14276Q30.909374 161.64276 31.846874 161.64276Q32.534374 161.64276 33.05 161.92401Q33.58125 162.20526 33.925 162.73651Q34.26875 163.25214 34.45625 164.00214Q34.64375 164.75214 34.64375 166.03339Q34.64375 167.54901 34.33125 168.47089Q34.034374 169.39276 33.409374 169.90839Q32.8 170.40839 31.846874 170.40839Q30.6125 170.40839 29.89375 169.51776Q29.05 168.45526 29.05 166.03339ZM30.128124 166.03339Q30.128124 168.14276 30.628124 168.84589Q31.128124 169.54901 31.846874 169.54901Q32.58125 169.54901 33.065624 168.84589Q33.565624 168.14276 33.565624 166.03339Q33.565624 163.90839 33.065624 163.22089Q32.58125 162.51776 31.83125 162.51776Q31.1125 162.51776 30.675 163.12714Q30.128124 163.90839 30.128124 166.03339ZM36.05 166.03339Q36.05 164.50214 36.3625 163.58026Q36.675 162.64276 37.284374 162.14276Q37.909374 161.64276 38.846874 161.64276Q39.534374 161.64276 40.05 161.92401Q40.58125 162.20526 40.925 162.73651Q41.26875 163.25214 41.45625 164.00214Q41.64375 164.75214 41.64375 166.03339Q41.64375 167.54901 41.33125 168.47089Q41.034374 169.39276 40.409374 169.90839Q39.8 170.40839 38.846874 170.40839Q37.6125 170.40839 36.89375 169.51776Q36.05 168.45526 36.05 166.03339ZM37.128124 166.03339Q37.128124 168.14276 37.628124 168.84589Q38.128124 169.54901 38.846874 169.54901Q39.58125 169.54901 40.065624 168.84589Q40.565624 168.14276 40.565624 166.03339Q40.565624 163.90839 40.065624 163.22089Q39.58125 162.51776 38.83125 162.51776Q38.1125 162.51776 37.675 163.12714Q37.128124 163.90839 37.128124 166.03339ZM43.503124 170.26776L43.503124 161.67401L49.70625 161.67401L49.70625 162.68964L44.64375 162.68964L44.64375 165.31464L49.39375 165.31464L49.39375 166.33026L44.64375 166.33026L44.64375 169.25214L49.909374 169.25214L49.909374 170.26776L43.503124 170.26776ZM53.55 168.87714L53.55 166.51776L51.221874 166.51776L51.221874 165.53339L53.55 165.53339L53.55 163.20526L54.55 163.20526L54.55 165.53339L56.89375 165.53339L56.89375 166.51776L54.55 166.51776L54.55 168.87714L53.55 168.87714ZM58.05 168.01776L59.159374 167.92401Q59.284374 168.73651 59.721874 169.14276Q60.175 169.54901 60.815624 169.54901Q61.565624 169.54901 62.096874 168.97089Q62.628124 168.39276 62.628124 167.45526Q62.628124 166.54901 62.1125 166.03339Q61.6125 165.50214 60.784374 165.50214Q60.284374 165.50214 59.8625 165.73651Q59.45625 165.97089 59.221874 166.33026L58.2375 166.20526L59.065624 161.79901L63.346874 161.79901L63.346874 162.79901L59.909374 162.79901L59.45625 165.11151Q60.221874 164.56464 61.065624 164.56464Q62.190624 164.56464 62.95625 165.34589Q63.7375 166.12714 63.7375 167.36151Q63.7375 168.51776 63.065624 169.37714Q62.2375 170.40839 60.815624 170.40839Q59.64375 170.40839 58.89375 169.75214Q58.159374 169.09589 58.05 168.01776Z" fill-rule="nonzero"/><path fill="#000000" d="M23.01875 103.794876L21.971874 103.794876L21.971874 97.076126Q21.58125 97.4355 20.95625 97.8105Q20.346874 98.169876 19.8625 98.34175L19.8625 97.326126Q20.7375 96.90425 21.39375 96.326126Q22.065624 95.732376 22.346874 95.169876L23.01875 95.169876L23.01875 103.794876ZM26.64375 103.794876L26.64375 102.59175L27.846874 102.59175L27.846874 103.794876L26.64375 103.794876ZM29.05 99.5605Q29.05 98.02925 29.3625 97.107376Q29.675 96.169876 30.284374 95.669876Q30.909374 95.169876 31.846874 95.169876Q32.534374 95.169876 33.05 95.451126Q33.58125 95.732376 33.925 96.263626Q34.26875 96.77925 34.45625 97.52925Q34.64375 98.27925 34.64375 99.5605Q34.64375 101.076126 34.33125 101.998Q34.034374 102.919876 33.409374 103.4355Q32.8 103.9355 31.846874 103.9355Q30.6125 103.9355 29.89375 103.044876Q29.05 101.982376 29.05 99.5605ZM30.128124 99.5605Q30.128124 101.669876 30.628124 102.373Q31.128124 103.076126 31.846874 103.076126Q32.58125 103.076126 33.065624 102.373Q33.565624 101.669876 33.565624 99.5605Q33.565624 97.4355 33.065624 96.748Q32.58125 96.044876 31.83125 96.044876Q31.1125 96.044876 30.675 96.65425Q30.128124 97.4355 30.128124 99.5605ZM36.05 99.5605Q36.05 98.02925 36.3625 97.107376Q36.675 96.169876 37.284374 95.669876Q37.909374 95.169876 38.846874 95.169876Q39.534374 95.169876 40.05 95.451126Q40.58125 95.732376 40.925 96.263626Q41.26875 96.77925 41.45625 97.52925Q41.64375 98.27925 41.64375 99.5605Q41.64375 101.076126 41.33125 101.998Q41.034374 102.919876 40.409374 103.4355Q39.8 103.9355 38.846874 103.9355Q37.6125 103.9355 36.89375 103.044876Q36.05 101.982376 36.05 99.5605ZM37.128124 99.5605Q37.128124 101.669876 37.628124 102.373Q38.128124 103.076126 38.846874 103.076126Q39.58125 103.076126 40.065624 102.373Q40.565624 101.669876 40.565624 99.5605Q40.565624 97.4355 40.065624 96.748Q39.58125 96.044876 38.83125 96.044876Q38.1125 96.044876 37.675 96.65425Q37.128124 97.4355 37.128124 99.5605ZM43.503124 103.794876L43.503124 95.201126L49.70625 95.201126L49.70625 96.21675L44.64375 96.21675L44.64375 98.84175L49.39375 98.84175L49.39375 99.857376L44.64375 99.857376L44.64375 102.77925L49.909374 102.77925L49.909374 103.794876L43.503124 103.794876ZM53.55 102.40425L53.55 100.044876L51.221874 100.044876L51.221874 99.0605L53.55 99.0605L53.55 96.732376L54.55 96.732376L54.55 99.0605L56.89375 99.0605L56.89375 100.044876L54.55 100.044876L54.55 102.40425L53.55 102.40425ZM58.1125 96.326126L58.1125 95.3105L63.675 95.3105L63.675 96.138626Q62.8625 97.013626 62.05 98.46675Q61.253124 99.90425 60.815624 101.4355Q60.4875 102.513626 60.409374 103.794876L59.315624 103.794876Q59.33125 102.77925 59.70625 101.34175Q60.096874 99.90425 60.8 98.576126Q61.51875 97.248 62.33125 96.326126L58.1125 96.326126Z" fill-rule="nonzero"/><path fill="#000000" d="M118.43814 349.45L117.391266 349.45L117.391266 342.73126Q117.00064 343.09064 116.37564 343.46564Q115.766266 343.825 115.28189 343.9969L115.28189 342.98126Q116.15689 342.5594 116.81314 341.98126Q117.485016 341.3875 117.766266 340.825L118.43814 340.825L118.43814 349.45Z" fill-rule="nonzero"/><path fill="#000000" d="M185.6046 344.79376Q184.94835 344.54376 184.62022 344.10626Q184.30772 343.65314 184.30772 343.04376Q184.30772 342.10626 184.9796 341.46564Q185.6671 340.825 186.77647 340.825Q187.90147 340.825 188.58897 341.48126Q189.27647 342.1375 189.27647 343.075Q189.27647 343.66876 188.96397 344.10626Q188.65147 344.54376 188.01085 344.79376Q188.80772 345.04376 189.21397 345.6219Q189.62022 346.2 189.62022 346.9969Q189.62022 348.09064 188.83897 348.84064Q188.07335 349.59064 186.7921 349.59064Q185.52647 349.59064 184.74522 348.84064Q183.96397 348.09064 183.96397 346.96564Q183.96397 346.1219 184.38585 345.5594Q184.82335 344.9969 185.6046 344.79376ZM185.38585 342.9969Q185.38585 343.60626 185.77647 343.9969Q186.18272 344.3875 186.80772 344.3875Q187.4171 344.3875 187.80772 344.0125Q188.19835 343.6219 188.19835 343.0594Q188.19835 342.48126 187.7921 342.09064Q187.38585 341.6844 186.7921 341.6844Q186.18272 341.6844 185.77647 342.075Q185.38585 342.46564 185.38585 342.9969ZM185.05772 346.96564Q185.05772 347.41876 185.26085 347.84064Q185.4796 348.2625 185.90147 348.4969Q186.32335 348.73126 186.80772 348.73126Q187.55772 348.73126 188.0421 348.2469Q188.5421 347.7625 188.5421 347.0125Q188.5421 346.2469 188.0421 345.7469Q187.5421 345.2469 186.77647 345.2469Q186.02647 345.2469 185.5421 345.7469Q185.05772 346.23126 185.05772 346.96564Z" fill-rule="nonzero"/><path fill="#000000" d="M255.45854 342.96564L254.41167 343.04376Q254.27104 342.41876 254.02104 342.1375Q253.58354 341.6844 252.95854 341.6844Q252.45854 341.6844 252.06792 341.96564Q251.58354 342.34064 251.28667 343.04376Q251.00542 343.73126 250.98979 345.0125Q251.36479 344.4344 251.91167 344.15314Q252.47417 343.8719 253.08354 343.8719Q254.13042 343.8719 254.86479 344.65314Q255.61479 345.4344 255.61479 346.65314Q255.61479 347.46564 255.25542 348.16876Q254.91167 348.85626 254.30229 349.23126Q253.69292 349.59064 252.92729 349.59064Q251.59917 349.59064 250.77104 348.6219Q249.94292 347.65314 249.94292 345.4344Q249.94292 342.9344 250.86479 341.8094Q251.66167 340.825 253.02104 340.825Q254.03667 340.825 254.67729 341.40314Q255.33354 341.96564 255.45854 342.96564ZM251.16167 346.66876Q251.16167 347.21564 251.38042 347.71564Q251.61479 348.2 252.02104 348.46564Q252.44292 348.73126 252.91167 348.73126Q253.56792 348.73126 254.05229 348.2Q254.53667 347.65314 254.53667 346.73126Q254.53667 345.84064 254.05229 345.325Q253.58354 344.8094 252.86479 344.8094Q252.14604 344.8094 251.64604 345.325Q251.16167 345.84064 251.16167 346.66876ZM260.3648 349.45L260.3648 347.3875L256.64606 347.3875L256.64606 346.41876L260.56793 340.85626L261.4273 340.85626L261.4273 346.41876L262.58356 346.41876L262.58356 347.3875L261.4273 347.3875L261.4273 349.45L260.3648 349.45ZM260.3648 346.41876L260.3648 342.5594L257.6773 346.41876L260.3648 346.41876Z" fill-rule="nonzero"/><path fill="#000000" d="M316.0 347.2L317.10938 347.10626Q317.23438 347.91876 317.67188 348.325Q318.125 348.73126 318.76562 348.73126Q319.51562 348.73126 320.04688 348.15314Q320.57812 347.575 320.57812 346.6375Q320.57812 345.73126 320.0625 345.21564Q319.5625 344.6844 318.73438 344.6844Q318.23438 344.6844 317.8125 344.91876Q317.40625 345.15314 317.17188 345.5125L316.1875 345.3875L317.01562 340.98126L321.29688 340.98126L321.29688 341.98126L317.85938 341.98126L317.40625 344.29376Q318.17188 343.7469 319.01562 343.7469Q320.14062 343.7469 320.90625 344.52814Q321.6875 345.3094 321.6875 346.54376Q321.6875 347.7 321.01562 348.5594Q320.1875 349.59064 318.76562 349.59064Q317.59375 349.59064 316.84375 348.9344Q316.10938 348.27814 316.0 347.2ZM326.96875 349.45L325.92188 349.45L325.92188 342.73126Q325.53125 343.09064 324.90625 343.46564Q324.29688 343.825 323.8125 343.9969L323.8125 342.98126Q324.6875 342.5594 325.34375 341.98126Q326.01562 341.3875 326.29688 340.825L326.96875 340.825L326.96875 349.45ZM335.54688 348.4344L335.54688 349.45L329.85938 349.45Q329.85938 349.075 329.98438 348.71564Q330.20312 348.1375 330.67188 347.575Q331.15625 347.0125 332.0625 346.27814Q333.46875 345.1219 333.95312 344.45Q334.45312 343.77814 334.45312 343.1844Q334.45312 342.5594 334.0 342.1375Q333.54688 341.7 332.82812 341.7Q332.0625 341.7 331.60938 342.15314Q331.15625 342.60626 331.14062 343.41876L330.0625 343.3094Q330.17188 342.09064 330.89062 341.46564Q331.625 340.825 332.85938 340.825Q334.09375 340.825 334.8125 341.5125Q335.53125 342.2 335.53125 343.21564Q335.53125 343.73126 335.3125 344.23126Q335.10938 344.71564 334.60938 345.27814Q334.125 345.825 333.0 346.77814Q332.04688 347.575 331.76562 347.8719Q331.5 348.15314 331.32812 348.4344L335.54688 348.4344Z" fill-rule="nonzero"/><path fill="#000000" d="M385.3852 349.45L385.3852 347.3875L381.66644 347.3875L381.66644 346.41876L385.58832 340.85626L386.4477 340.85626L386.4477 346.41876L387.60394 346.41876L387.60394 347.3875L386.4477 347.3875L386.4477 349.45L385.3852 349.45ZM385.3852 346.41876L385.3852 342.5594L382.6977 346.41876L385.3852 346.41876ZM389.0102 345.21564Q389.0102 343.6844 389.3227 342.7625Q389.6352 341.825 390.24457 341.325Q390.86957 340.825 391.80707 340.825Q392.49457 340.825 393.0102 341.10626Q393.54144 341.3875 393.8852 341.91876Q394.22894 342.4344 394.41644 343.1844Q394.60394 343.9344 394.60394 345.21564Q394.60394 346.73126 394.29144 347.65314Q393.99457 348.575 393.36957 349.09064Q392.7602 349.59064 391.80707 349.59064Q390.5727 349.59064 389.85394 348.7Q389.0102 347.6375 389.0102 345.21564ZM390.08832 345.21564Q390.08832 347.325 390.58832 348.02814Q391.08832 348.73126 391.80707 348.73126Q392.54144 348.73126 393.02582 348.02814Q393.52582 347.325 393.52582 345.21564Q393.52582 343.09064 393.02582 342.40314Q392.54144 341.7 391.79144 341.7Q391.0727 341.7 390.6352 342.3094Q390.08832 343.09064 390.08832 345.21564ZM396.16644 347.46564L397.18207 347.3719Q397.30707 348.09064 397.66644 348.41876Q398.04144 348.73126 398.60394 348.73126Q399.08832 348.73126 399.4477 348.5125Q399.8227 348.27814 400.05707 347.91876Q400.29144 347.54376 400.4477 346.91876Q400.60394 346.27814 400.60394 345.6219Q400.60394 345.54376 400.60394 345.40314Q400.29144 345.90314 399.74457 346.23126Q399.1977 346.54376 398.55707 346.54376Q397.47894 346.54376 396.74457 345.77814Q396.0102 344.9969 396.0102 343.73126Q396.0102 342.41876 396.77582 341.6219Q397.55707 340.825 398.71332 340.825Q399.54144 340.825 400.22894 341.27814Q400.93207 341.73126 401.29144 342.575Q401.65082 343.40314 401.65082 344.98126Q401.65082 346.6219 401.29144 347.60626Q400.9477 348.575 400.22894 349.09064Q399.52582 349.59064 398.58832 349.59064Q397.5727 349.59064 396.93207 349.04376Q396.29144 348.48126 396.16644 347.46564ZM400.47894 343.66876Q400.47894 342.7625 399.99457 342.23126Q399.52582 341.7 398.83832 341.7Q398.1352 341.7 397.60394 342.27814Q397.08832 342.84064 397.08832 343.7625Q397.08832 344.575 397.58832 345.09064Q398.08832 345.60626 398.80707 345.60626Q399.54144 345.60626 400.0102 345.09064Q400.47894 344.575 400.47894 343.66876ZM408.47894 342.96564L407.43207 343.04376Q407.29144 342.41876 407.04144 342.1375Q406.60394 341.6844 405.97894 341.6844Q405.47894 341.6844 405.08832 341.96564Q404.60394 342.34064 404.30707 343.04376Q404.02582 343.73126 404.0102 345.0125Q404.3852 344.4344 404.93207 344.15314Q405.49457 343.8719 406.10394 343.8719Q407.15082 343.8719 407.8852 344.65314Q408.6352 345.4344 408.6352 346.65314Q408.6352 347.46564 408.27582 348.16876Q407.93207 348.85626 407.3227 349.23126Q406.71332 349.59064 405.9477 349.59064Q404.61957 349.59064 403.79144 348.6219Q402.96332 347.65314 402.96332 345.4344Q402.96332 342.9344 403.8852 341.8094Q404.68207 340.825 406.04144 340.825Q407.05707 340.825 407.6977 341.40314Q408.35394 341.96564 408.47894 342.96564ZM404.18207 346.66876Q404.18207 347.21564 404.40082 347.71564Q404.6352 348.2 405.04144 348.46564Q405.46332 348.73126 405.93207 348.73126Q406.58832 348.73126 407.0727 348.2Q407.55707 347.65314 407.55707 346.73126Q407.55707 345.84064 407.0727 345.325Q406.60394 344.8094 405.8852 344.8094Q405.16644 344.8094 404.66644 345.325Q404.18207 345.84064 404.18207 346.66876Z" fill-rule="nonzero"/><path fill="#000000" d="M448.02042 347.1844L449.08292 347.04376Q449.2548 347.9344 449.6923 348.34064Q450.1298 348.73126 450.7548 348.73126Q451.5048 348.73126 452.02042 348.21564Q452.53604 347.7 452.53604 346.9344Q452.53604 346.21564 452.05167 345.7469Q451.58292 345.2625 450.84854 345.2625Q450.55167 345.2625 450.09854 345.3875L450.22354 344.45Q450.33292 344.46564 450.39542 344.46564Q451.0673 344.46564 451.59854 344.1219Q452.14542 343.7625 452.14542 343.02814Q452.14542 342.45 451.7548 342.075Q451.36417 341.6844 450.73917 341.6844Q450.1298 341.6844 449.70792 342.075Q449.30167 342.46564 449.1923 343.23126L448.1298 343.04376Q448.3173 341.9969 449.0048 341.41876Q449.6923 340.825 450.70792 340.825Q451.41104 340.825 452.0048 341.1375Q452.59854 341.4344 452.91104 341.95Q453.22354 342.46564 453.22354 343.0594Q453.22354 343.60626 452.92667 344.075Q452.6298 344.52814 452.05167 344.79376Q452.80167 344.96564 453.22354 345.52814Q453.64542 346.075 453.64542 346.91876Q453.64542 348.04376 452.8173 348.825Q452.0048 349.60626 450.7548 349.60626Q449.6298 349.60626 448.8798 348.9344Q448.1298 348.2469 448.02042 347.1844ZM460.5673 348.4344L460.5673 349.45L454.8798 349.45Q454.8798 349.075 455.0048 348.71564Q455.22354 348.1375 455.6923 347.575Q456.17667 347.0125 457.08292 346.27814Q458.48917 345.1219 458.97354 344.45Q459.47354 343.77814 459.47354 343.1844Q459.47354 342.5594 459.02042 342.1375Q458.5673 341.7 457.84854 341.7Q457.08292 341.7 456.6298 342.15314Q456.17667 342.60626 456.16104 343.41876L455.08292 343.3094Q455.1923 342.09064 455.91104 341.46564Q456.64542 340.825 457.8798 340.825Q459.11417 340.825 459.83292 341.5125Q460.55167 342.2 460.55167 343.21564Q460.55167 343.73126 460.33292 344.23126Q460.1298 344.71564 459.6298 345.27814Q459.14542 345.825 458.02042 346.77814Q457.0673 347.575 456.78604 347.8719Q456.52042 348.15314 456.34854 348.4344L460.5673 348.4344ZM462.08292 341.98126L462.08292 340.96564L467.64542 340.96564L467.64542 341.79376Q466.83292 342.66876 466.02042 344.1219Q465.22354 345.5594 464.78604 347.09064Q464.45792 348.16876 464.3798 349.45L463.28604 349.45Q463.30167 348.4344 463.67667 346.9969Q464.0673 345.5594 464.77042 344.23126Q465.48917 342.90314 466.30167 341.98126L462.08292 341.98126ZM474.48917 342.96564L473.4423 343.04376Q473.30167 342.41876 473.05167 342.1375Q472.61417 341.6844 471.98917 341.6844Q471.48917 341.6844 471.09854 341.96564Q470.61417 342.34064 470.3173 343.04376Q470.03604 343.73126 470.02042 345.0125Q470.39542 344.4344 470.9423 344.15314Q471.5048 343.8719 472.11417 343.8719Q473.16104 343.8719 473.89542 344.65314Q474.64542 345.4344 474.64542 346.65314Q474.64542 347.46564 474.28604 348.16876Q473.9423 348.85626 473.33292 349.23126Q472.72354 349.59064 471.95792 349.59064Q470.6298 349.59064 469.80167 348.6219Q468.97354 347.65314 468.97354 345.4344Q468.97354 342.9344 469.89542 341.8094Q470.6923 340.825 472.05167 340.825Q473.0673 340.825 473.70792 341.40314Q474.36417 341.96564 474.48917 342.96564ZM470.1923 346.66876Q470.1923 347.21564 470.41104 347.71564Q470.64542 348.2 471.05167 348.46564Q471.47354 348.73126 471.9423 348.73126Q472.59854 348.73126 473.08292 348.2Q473.5673 347.65314 473.5673 346.73126Q473.5673 345.84064 473.08292 345.325Q472.61417 344.8094 471.89542 344.8094Q471.17667 344.8094 470.67667 345.325Q470.1923 345.84064 470.1923 346.66876ZM477.64542 344.79376Q476.98917 344.54376 476.66104 344.10626Q476.34854 343.65314 476.34854 343.04376Q476.34854 342.10626 477.02042 341.46564Q477.70792 340.825 478.8173 340.825Q479.9423 340.825 480.6298 341.48126Q481.3173 342.1375 481.3173 343.075Q481.3173 343.66876 481.0048 344.10626Q480.6923 344.54376 480.05167 344.79376Q480.84854 345.04376 481.2548 345.6219Q481.66104 346.2 481.66104 346.9969Q481.66104 348.09064 480.8798 348.84064Q480.11417 349.59064 478.83292 349.59064Q477.5673 349.59064 476.78604 348.84064Q476.0048 348.09064 476.0048 346.96564Q476.0048 346.1219 476.42667 345.5594Q476.86417 344.9969 477.64542 344.79376ZM477.42667 342.9969Q477.42667 343.60626 477.8173 343.9969Q478.22354 344.3875 478.84854 344.3875Q479.45792 344.3875 479.84854 344.0125Q480.23917 343.6219 480.23917 343.0594Q480.23917 342.48126 479.83292 342.09064Q479.42667 341.6844 478.83292 341.6844Q478.22354 341.6844 477.8173 342.075Q477.42667 342.46564 477.42667 342.9969ZM477.09854 346.96564Q477.09854 347.41876 477.30167 347.84064Q477.52042 348.2625 477.9423 348.4969Q478.36417 348.73126 478.84854 348.73126Q479.59854 348.73126 480.08292 348.2469Q480.58292 347.7625 480.58292 347.0125Q480.58292 346.2469 480.08292 345.7469Q479.58292 345.2469 478.8173 345.2469Q478.0673 345.2469 477.58292 345.7469Q477.09854 346.23126 477.09854 346.96564Z" fill-rule="nonzero"/><path fill="#000000" d="M522.9994 342.96564L521.9525 343.04376Q521.8119 342.41876 521.5619 342.1375Q521.1244 341.6844 520.4994 341.6844Q519.9994 341.6844 519.60876 341.96564Q519.1244 342.34064 518.8275 343.04376Q518.54626 343.73126 518.53064 345.0125Q518.90564 344.4344 519.4525 344.15314Q520.015 343.8719 520.6244 343.8719Q521.67126 343.8719 522.40564 344.65314Q523.15564 345.4344 523.15564 346.65314Q523.15564 347.46564 522.79626 348.16876Q522.4525 348.85626 521.84314 349.23126Q521.23376 349.59064 520.46814 349.59064Q519.14 349.59064 518.3119 348.6219Q517.48376 347.65314 517.48376 345.4344Q517.48376 342.9344 518.40564 341.8094Q519.2025 340.825 520.5619 340.825Q521.5775 340.825 522.21814 341.40314Q522.8744 341.96564 522.9994 342.96564ZM518.7025 346.66876Q518.7025 347.21564 518.92126 347.71564Q519.15564 348.2 519.5619 348.46564Q519.98376 348.73126 520.4525 348.73126Q521.10876 348.73126 521.59314 348.2Q522.0775 347.65314 522.0775 346.73126Q522.0775 345.84064 521.59314 345.325Q521.1244 344.8094 520.40564 344.8094Q519.6869 344.8094 519.1869 345.325Q518.7025 345.84064 518.7025 346.66876ZM524.53064 347.2L525.64 347.10626Q525.765 347.91876 526.2025 348.325Q526.65564 348.73126 527.29626 348.73126Q528.04626 348.73126 528.5775 348.15314Q529.10876 347.575 529.10876 346.6375Q529.10876 345.73126 528.59314 345.21564Q528.09314 344.6844 527.265 344.6844Q526.765 344.6844 526.34314 344.91876Q525.9369 345.15314 525.7025 345.5125L524.71814 345.3875L525.54626 340.98126L529.8275 340.98126L529.8275 341.98126L526.39 341.98126L525.9369 344.29376Q526.7025 343.7469 527.54626 343.7469Q528.67126 343.7469 529.4369 344.52814Q530.21814 345.3094 530.21814 346.54376Q530.21814 347.7 529.54626 348.5594Q528.71814 349.59064 527.29626 349.59064Q526.1244 349.59064 525.3744 348.9344Q524.64 348.27814 524.53064 347.2ZM531.53064 347.2L532.64 347.10626Q532.765 347.91876 533.2025 348.325Q533.65564 348.73126 534.29626 348.73126Q535.04626 348.73126 535.5775 348.15314Q536.10876 347.575 536.10876 346.6375Q536.10876 345.73126 535.59314 345.21564Q535.09314 344.6844 534.265 344.6844Q533.765 344.6844 533.34314 344.91876Q532.9369 345.15314 532.7025 345.5125L531.71814 345.3875L532.54626 340.98126L536.8275 340.98126L536.8275 341.98126L533.39 341.98126L532.9369 344.29376Q533.7025 343.7469 534.54626 343.7469Q535.67126 343.7469 536.4369 344.52814Q537.21814 345.3094 537.21814 346.54376Q537.21814 347.7 536.54626 348.5594Q535.71814 349.59064 534.29626 349.59064Q533.1244 349.59064 532.3744 348.9344Q531.64 348.27814 531.53064 347.2ZM538.53064 347.1844L539.59314 347.04376Q539.765 347.9344 540.2025 348.34064Q540.64 348.73126 541.265 348.73126Q542.015 348.73126 542.53064 348.21564Q543.04626 347.7 543.04626 346.9344Q543.04626 346.21564 542.5619 345.7469Q542.09314 345.2625 541.35876 345.2625Q541.0619 345.2625 540.60876 345.3875L540.73376 344.45Q540.84314 344.46564 540.90564 344.46564Q541.5775 344.46564 542.10876 344.1219Q542.65564 343.7625 542.65564 343.02814Q542.65564 342.45 542.265 342.075Q541.8744 341.6844 541.2494 341.6844Q540.64 341.6844 540.21814 342.075Q539.8119 342.46564 539.7025 343.23126L538.64 343.04376Q538.8275 341.9969 539.515 341.41876Q540.2025 340.825 541.21814 340.825Q541.92126 340.825 542.515 341.1375Q543.10876 341.4344 543.42126 341.95Q543.73376 342.46564 543.73376 343.0594Q543.73376 343.60626 543.4369 344.075Q543.14 344.52814 542.5619 344.79376Q543.3119 344.96564 543.73376 345.52814Q544.15564 346.075 544.15564 346.91876Q544.15564 348.04376 543.3275 348.825Q542.515 349.60626 541.265 349.60626Q540.14 349.60626 539.39 348.9344Q538.64 348.2469 538.53064 347.1844ZM550.9994 342.96564L549.9525 343.04376Q549.8119 342.41876 549.5619 342.1375Q549.1244 341.6844 548.4994 341.6844Q547.9994 341.6844 547.60876 341.96564Q547.1244 342.34064 546.8275 343.04376Q546.54626 343.73126 546.53064 345.0125Q546.90564 344.4344 547.4525 344.15314Q548.015 343.8719 548.6244 343.8719Q549.67126 343.8719 550.40564 344.65314Q551.15564 345.4344 551.15564 346.65314Q551.15564 347.46564 550.79626 348.16876Q550.4525 348.85626 549.84314 349.23126Q549.23376 349.59064 548.46814 349.59064Q547.14 349.59064 546.3119 348.6219Q545.48376 347.65314 545.48376 345.4344Q545.48376 342.9344 546.40564 341.8094Q547.2025 340.825 548.5619 340.825Q549.5775 340.825 550.21814 341.40314Q550.8744 341.96564 550.9994 342.96564ZM546.7025 346.66876Q546.7025 347.21564 546.92126 347.71564Q547.15564 348.2 547.5619 348.46564Q547.98376 348.73126 548.4525 348.73126Q549.10876 348.73126 549.59314 348.2Q550.0775 347.65314 550.0775 346.73126Q550.0775 345.84064 549.59314 345.325Q549.1244 344.8094 548.40564 344.8094Q547.6869 344.8094 547.1869 345.325Q546.7025 345.84064 546.7025 346.66876Z" fill-rule="nonzero"/><path fill="#4285f4" d="M173.5 56.916668C173.5 56.364384 173.94771 55.916668 174.5 55.916668L184.5 55.916668C185.05229 55.916668 185.5 56.364384 185.5 56.916668L185.5 66.916664C185.5 67.46895 185.05229 67.916664 184.5 67.916664L174.5 67.916664C173.94771 67.916664 173.5 67.46895 173.5 66.916664Z" fill-rule="nonzero"/><path fill="#1a1a1a" d="M194.04688 63.15104L195.10938 63.05729Q195.1875 63.71354 195.46875 64.11979Q195.75 64.52604 196.32812 64.791664Q196.92188 65.041664 197.65625 65.041664Q198.29688 65.041664 198.79688 64.854164Q199.29688 64.65104 199.53125 64.322914Q199.78125 63.979164 199.78125 63.58854Q199.78125 63.18229 199.54688 62.885414Q199.3125 62.572914 198.78125 62.36979Q198.42188 62.229164 197.23438 61.947914Q196.0625 61.666664 195.59375 61.416664Q194.96875 61.08854 194.67188 60.61979Q194.375 60.135414 194.375 59.541664Q194.375 58.90104 194.73438 58.33854Q195.10938 57.760414 195.8125 57.479164Q196.53125 57.18229 197.39062 57.18229Q198.34375 57.18229 199.07812 57.49479Q199.8125 57.791664 200.20312 58.40104Q200.59375 58.99479 200.625 59.74479L199.53125 59.822914Q199.4375 59.010414 198.92188 58.604164Q198.42188 58.18229 197.4375 58.18229Q196.40625 58.18229 195.9375 58.55729Q195.46875 58.93229 195.46875 59.46354Q195.46875 59.93229 195.79688 60.229164Q196.125 60.52604 197.5 60.83854Q198.89062 61.15104 199.40625 61.385414Q200.15625 61.74479 200.51562 62.27604Q200.875 62.791664 200.875 63.49479Q200.875 64.18229 200.48438 64.791664Q200.09375 65.385414 199.35938 65.729164Q198.625 66.05729 197.70312 66.05729Q196.53125 66.05729 195.73438 65.729164Q194.95312 65.385414 194.5 64.697914Q194.0625 64.010414 194.04688 63.15104ZM204.59375 64.979164L204.75 65.90104Q204.29688 65.99479 203.95312 65.99479Q203.375 65.99479 203.0625 65.822914Q202.75 65.635414 202.60938 65.33854Q202.48438 65.041664 202.48438 64.08854L202.48438 60.510414L201.71875 60.510414L201.71875 59.697914L202.48438 59.697914L202.48438 58.15104L203.53125 57.52604L203.53125 59.697914L204.59375 59.697914L204.59375 60.510414L203.53125 60.510414L203.53125 64.15104Q203.53125 64.604164 203.57812 64.729164Q203.64062 64.854164 203.76562 64.93229Q203.89062 65.010414 204.125 65.010414Q204.3125 65.010414 204.59375 64.979164ZM209.32812 65.916664L209.32812 65.135414Q208.73438 66.05729 207.59375 66.05729Q206.84375 66.05729 206.21875 65.65104Q205.59375 65.229164 205.25 64.49479Q204.90625 63.760414 204.90625 62.80729Q204.90625 61.885414 205.21875 61.11979Q205.53125 60.354164 206.15625 59.96354Q206.78125 59.55729 207.54688 59.55729Q208.10938 59.55729 208.54688 59.791664Q208.98438 60.02604 209.26562 60.40104L209.26562 57.322914L210.3125 57.322914L210.3125 65.916664L209.32812 65.916664ZM206.0 62.80729Q206.0 64.010414 206.5 64.604164Q207.0 65.18229 207.6875 65.18229Q208.375 65.18229 208.85938 64.61979Q209.34375 64.05729 209.34375 62.90104Q209.34375 61.61979 208.84375 61.02604Q208.35938 60.43229 207.64062 60.43229Q206.9375 60.43229 206.46875 61.010414Q206.0 61.572914 206.0 62.80729ZM212.4375 65.916664L212.4375 57.322914L216.25 57.322914Q217.40625 57.322914 218.0 57.55729Q218.59375 57.791664 218.95312 58.385414Q219.3125 58.96354 219.3125 59.666664Q219.3125 60.58854 218.71875 61.21354Q218.125 61.83854 216.89062 62.010414Q217.34375 62.229164 217.57812 62.43229Q218.07812 62.885414 218.51562 63.572914L220.01562 65.916664L218.57812 65.916664L217.45312 64.135414Q216.95312 63.354164 216.625 62.947914Q216.3125 62.541664 216.04688 62.385414Q215.79688 62.21354 215.53125 62.135414Q215.34375 62.104164 214.90625 62.104164L213.57812 62.104164L213.57812 65.916664L212.4375 65.916664ZM213.57812 61.11979L216.03125 61.11979Q216.79688 61.11979 217.23438 60.96354Q217.6875 60.791664 217.90625 60.447914Q218.14062 60.08854 218.14062 59.666664Q218.14062 59.05729 217.6875 58.666664Q217.25 58.27604 216.29688 58.27604L213.57812 58.27604L213.57812 61.11979ZM225.35938 65.15104Q224.76562 65.65104 224.21875 65.854164Q223.6875 66.05729 223.0625 66.05729Q222.03125 66.05729 221.48438 65.55729Q220.9375 65.05729 220.9375 64.27604Q220.9375 63.822914 221.14062 63.447914Q221.34375 63.05729 221.6875 62.83854Q222.03125 62.604164 222.45312 62.49479Q222.75 62.40104 223.39062 62.322914Q224.65625 62.18229 225.26562 61.96354Q225.26562 61.74479 225.26562 61.697914Q225.26562 61.041664 224.96875 60.77604Q224.5625 60.43229 223.76562 60.43229Q223.03125 60.43229 222.67188 60.697914Q222.3125 60.947914 222.14062 61.604164L221.10938 61.46354Q221.25 60.80729 221.57812 60.40104Q221.90625 59.99479 222.51562 59.77604Q223.125 59.55729 223.92188 59.55729Q224.71875 59.55729 225.21875 59.74479Q225.71875 59.93229 225.95312 60.21354Q226.1875 60.49479 226.28125 60.93229Q226.32812 61.197914 226.32812 61.90104L226.32812 63.30729Q226.32812 64.77604 226.39062 65.166664Q226.46875 65.55729 226.67188 65.916664L225.5625 65.916664Q225.40625 65.58854 225.35938 65.15104ZM225.26562 62.791664Q224.6875 63.02604 223.54688 63.197914Q222.89062 63.291664 222.625 63.416664Q222.35938 63.52604 222.20312 63.74479Q222.0625 63.96354 222.0625 64.24479Q222.0625 64.666664 222.375 64.947914Q222.70312 65.229164 223.3125 65.229164Q223.92188 65.229164 224.39062 64.96354Q224.875 64.697914 225.09375 64.229164Q225.26562 63.86979 225.26562 63.18229L225.26562 62.791664ZM228.29688 65.916664L228.29688 59.697914L229.23438 59.697914L229.23438 60.572914Q229.92188 59.55729 231.21875 59.55729Q231.78125 59.55729 232.25 59.760414Q232.73438 59.96354 232.96875 60.291664Q233.20312 60.61979 233.29688 61.05729Q233.34375 61.354164 233.34375 62.08854L233.34375 65.916664L232.29688 65.916664L232.29688 62.135414Q232.29688 61.479164 232.17188 61.166664Q232.04688 60.854164 231.73438 60.666664Q231.42188 60.46354 231.0 60.46354Q230.32812 60.46354 229.82812 60.90104Q229.34375 61.322914 229.34375 62.510414L229.34375 65.916664L228.29688 65.916664ZM235.09375 66.43229L236.125 66.58854Q236.1875 67.05729 236.48438 67.27604Q236.875 67.572914 237.54688 67.572914Q238.28125 67.572914 238.67188 67.27604Q239.07812 66.979164 239.21875 66.46354Q239.3125 66.135414 239.29688 65.104164Q238.60938 65.916664 237.57812 65.916664Q236.29688 65.916664 235.59375 64.99479Q234.89062 64.05729 234.89062 62.77604Q234.89062 61.885414 235.20312 61.135414Q235.53125 60.36979 236.14062 59.96354Q236.75 59.55729 237.57812 59.55729Q238.6875 59.55729 239.40625 60.447914L239.40625 59.697914L240.375 59.697914L240.375 65.072914Q240.375 66.52604 240.07812 67.135414Q239.78125 67.74479 239.14062 68.08854Q238.5 68.447914 237.5625 68.447914Q236.45312 68.447914 235.76562 67.947914Q235.07812 67.447914 235.09375 66.43229ZM235.96875 62.697914Q235.96875 63.916664 236.45312 64.479164Q236.9375 65.041664 237.67188 65.041664Q238.40625 65.041664 238.89062 64.479164Q239.39062 63.916664 239.39062 62.729164Q239.39062 61.58854 238.875 61.010414Q238.375 60.43229 237.65625 60.43229Q236.95312 60.43229 236.45312 61.010414Q235.96875 61.572914 235.96875 62.697914ZM246.54688 63.916664L247.64062 64.041664Q247.39062 64.99479 246.6875 65.52604Q245.98438 66.05729 244.90625 66.05729Q243.54688 66.05729 242.73438 65.21354Q241.9375 64.36979 241.9375 62.854164Q241.9375 61.291664 242.75 60.43229Q243.5625 59.55729 244.84375 59.55729Q246.09375 59.55729 246.875 60.40104Q247.67188 61.24479 247.67188 62.791664Q247.67188 62.885414 247.67188 63.072914L243.03125 63.072914Q243.09375 64.104164 243.60938 64.65104Q244.125 65.18229 244.90625 65.18229Q245.48438 65.18229 245.89062 64.885414Q246.3125 64.572914 246.54688 63.916664ZM243.09375 62.21354L246.5625 62.21354Q246.5 61.416664 246.17188 61.02604Q245.65625 60.416664 244.85938 60.416664Q244.125 60.416664 243.625 60.90104Q243.14062 61.385414 243.09375 62.21354Z" fill-rule="nonzero"/><path fill="#ea4335" d="M264.5 56.916668C264.5 56.364384 264.94772 55.916668 265.5 55.916668L275.5 55.916668C276.05228 55.916668 276.5 56.364384 276.5 56.916668L276.5 66.916664C276.5 67.46895 276.05228 67.916664 275.5 67.916664L265.5 67.916664C264.94772 67.916664 264.5 67.46895 264.5 66.916664Z" fill-rule="nonzero"/><path fill="#1a1a1a" d="M285.4375 65.916664L285.4375 57.322914L289.25 57.322914Q290.40625 57.322914 291.0 57.55729Q291.59375 57.791664 291.95312 58.385414Q292.3125 58.96354 292.3125 59.666664Q292.3125 60.58854 291.71875 61.21354Q291.125 61.83854 289.89062 62.010414Q290.34375 62.229164 290.57812 62.43229Q291.07812 62.885414 291.51562 63.572914L293.01562 65.916664L291.57812 65.916664L290.45312 64.135414Q289.95312 63.354164 289.625 62.947914Q289.3125 62.541664 289.04688 62.385414Q288.79688 62.21354 288.53125 62.135414Q288.34375 62.104164 287.90625 62.104164L286.57812 62.104164L286.57812 65.916664L285.4375 65.916664ZM286.57812 61.11979L289.03125 61.11979Q289.79688 61.11979 290.23438 60.96354Q290.6875 60.791664 290.90625 60.447914Q291.14062 60.08854 291.14062 59.666664Q291.14062 59.05729 290.6875 58.666664Q290.25 58.27604 289.29688 58.27604L286.57812 58.27604L286.57812 61.11979ZM298.35938 65.15104Q297.76562 65.65104 297.21875 65.854164Q296.6875 66.05729 296.0625 66.05729Q295.03125 66.05729 294.48438 65.55729Q293.9375 65.05729 293.9375 64.27604Q293.9375 63.822914 294.14062 63.447914Q294.34375 63.05729 294.6875 62.83854Q295.03125 62.604164 295.45312 62.49479Q295.75 62.40104 296.39062 62.322914Q297.65625 62.18229 298.26562 61.96354Q298.26562 61.74479 298.26562 61.697914Q298.26562 61.041664 297.96875 60.77604Q297.5625 60.43229 296.76562 60.43229Q296.03125 60.43229 295.67188 60.697914Q295.3125 60.947914 295.14062 61.604164L294.10938 61.46354Q294.25 60.80729 294.57812 60.40104Q294.90625 59.99479 295.51562 59.77604Q296.125 59.55729 296.92188 59.55729Q297.71875 59.55729 298.21875 59.74479Q298.71875 59.93229 298.95312 60.21354Q299.1875 60.49479 299.28125 60.93229Q299.32812 61.197914 299.32812 61.90104L299.32812 63.30729Q299.32812 64.77604 299.39062 65.166664Q299.46875 65.55729 299.67188 65.916664L298.5625 65.916664Q298.40625 65.58854 298.35938 65.15104ZM298.26562 62.791664Q297.6875 63.02604 296.54688 63.197914Q295.89062 63.291664 295.625 63.416664Q295.35938 63.52604 295.20312 63.74479Q295.0625 63.96354 295.0625 64.24479Q295.0625 64.666664 295.375 64.947914Q295.70312 65.229164 296.3125 65.229164Q296.92188 65.229164 297.39062 64.96354Q297.875 64.697914 298.09375 64.229164Q298.26562 63.86979 298.26562 63.18229L298.26562 62.791664ZM301.29688 68.30729L301.29688 59.697914L302.25 59.697914L302.25 60.49479Q302.59375 60.02604 303.01562 59.791664Q303.45312 59.55729 304.0625 59.55729Q304.85938 59.55729 305.46875 59.96354Q306.07812 60.36979 306.375 61.11979Q306.6875 61.86979 306.6875 62.760414Q306.6875 63.71354 306.34375 64.479164Q306.01562 65.24479 305.35938 65.65104Q304.70312 66.05729 303.98438 66.05729Q303.45312 66.05729 303.03125 65.83854Q302.60938 65.604164 302.34375 65.27604L302.34375 68.30729L301.29688 68.30729ZM302.25 62.83854Q302.25 64.041664 302.73438 64.61979Q303.21875 65.18229 303.90625 65.18229Q304.60938 65.18229 305.10938 64.58854Q305.60938 63.99479 305.60938 62.74479Q305.60938 61.55729 305.125 60.979164Q304.64062 60.385414 303.95312 60.385414Q303.28125 60.385414 302.76562 61.010414Q302.25 61.635414 302.25 62.83854ZM308.29688 68.30729L308.29688 59.697914L309.25 59.697914L309.25 60.49479Q309.59375 60.02604 310.01562 59.791664Q310.45312 59.55729 311.0625 59.55729Q311.85938 59.55729 312.46875 59.96354Q313.07812 60.36979 313.375 61.11979Q313.6875 61.86979 313.6875 62.760414Q313.6875 63.71354 313.34375 64.479164Q313.01562 65.24479 312.35938 65.65104Q311.70312 66.05729 310.98438 66.05729Q310.45312 66.05729 310.03125 65.83854Q309.60938 65.604164 309.34375 65.27604L309.34375 68.30729L308.29688 68.30729ZM309.25 62.83854Q309.25 64.041664 309.73438 64.61979Q310.21875 65.18229 310.90625 65.18229Q311.60938 65.18229 312.10938 64.58854Q312.60938 63.99479 312.60938 62.74479Q312.60938 61.55729 312.125 60.979164Q311.64062 60.385414 310.95312 60.385414Q310.28125 60.385414 309.76562 61.010414Q309.25 61.635414 309.25 62.83854ZM319.54688 63.916664L320.64062 64.041664Q320.39062 64.99479 319.6875 65.52604Q318.98438 66.05729 317.90625 66.05729Q316.54688 66.05729 315.73438 65.21354Q314.9375 64.36979 314.9375 62.854164Q314.9375 61.291664 315.75 60.43229Q316.5625 59.55729 317.84375 59.55729Q319.09375 59.55729 319.875 60.40104Q320.67188 61.24479 320.67188 62.791664Q320.67188 62.885414 320.67188 63.072914L316.03125 63.072914Q316.09375 64.104164 316.60938 64.65104Q317.125 65.18229 317.90625 65.18229Q318.48438 65.18229 318.89062 64.885414Q319.3125 64.572914 319.54688 63.916664ZM316.09375 62.21354L319.5625 62.21354Q319.5 61.416664 319.17188 61.02604Q318.65625 60.416664 317.85938 60.416664Q317.125 60.416664 316.625 60.90104Q316.14062 61.385414 316.09375 62.21354ZM322.26562 65.916664L322.26562 57.322914L323.32812 57.322914L323.32812 65.916664L322.26562 65.916664Z" fill-rule="nonzero"/><path fill="#fbbc04" d="M340.5 56.916668C340.5 56.364384 340.94772 55.916668 341.5 55.916668L351.5 55.916668C352.05228 55.916668 352.5 56.364384 352.5 56.916668L352.5 66.916664C352.5 67.46895 352.05228 67.916664 351.5 67.916664L341.5 67.916664C340.94772 67.916664 340.5 67.46895 340.5 66.916664Z" fill-rule="nonzero"/><path fill="#1a1a1a" d="M361.46875 65.916664L361.46875 57.322914L362.59375 57.322914L362.59375 60.854164L367.0625 60.854164L367.0625 57.322914L368.20312 57.322914L368.20312 65.916664L367.0625 65.916664L367.0625 61.86979L362.59375 61.86979L362.59375 65.916664L361.46875 65.916664ZM374.35938 65.15104Q373.76562 65.65104 373.21875 65.854164Q372.6875 66.05729 372.0625 66.05729Q371.03125 66.05729 370.48438 65.55729Q369.9375 65.05729 369.9375 64.27604Q369.9375 63.822914 370.14062 63.447914Q370.34375 63.05729 370.6875 62.83854Q371.03125 62.604164 371.45312 62.49479Q371.75 62.40104 372.39062 62.322914Q373.65625 62.18229 374.26562 61.96354Q374.26562 61.74479 374.26562 61.697914Q374.26562 61.041664 373.96875 60.77604Q373.5625 60.43229 372.76562 60.43229Q372.03125 60.43229 371.67188 60.697914Q371.3125 60.947914 371.14062 61.604164L370.10938 61.46354Q370.25 60.80729 370.57812 60.40104Q370.90625 59.99479 371.51562 59.77604Q372.125 59.55729 372.92188 59.55729Q373.71875 59.55729 374.21875 59.74479Q374.71875 59.93229 374.95312 60.21354Q375.1875 60.49479 375.28125 60.93229Q375.32812 61.197914 375.32812 61.90104L375.32812 63.30729Q375.32812 64.77604 375.39062 65.166664Q375.46875 65.55729 375.67188 65.916664L374.5625 65.916664Q374.40625 65.58854 374.35938 65.15104ZM374.26562 62.791664Q373.6875 63.02604 372.54688 63.197914Q371.89062 63.291664 371.625 63.416664Q371.35938 63.52604 371.20312 63.74479Q371.0625 63.96354 371.0625 64.24479Q371.0625 64.666664 371.375 64.947914Q371.70312 65.229164 372.3125 65.229164Q372.92188 65.229164 373.39062 64.96354Q373.875 64.697914 374.09375 64.229164Q374.26562 63.86979 374.26562 63.18229L374.26562 62.791664ZM377.29688 65.916664L377.29688 59.697914L378.23438 59.697914L378.23438 60.572914Q378.92188 59.55729 380.21875 59.55729Q380.78125 59.55729 381.25 59.760414Q381.73438 59.96354 381.96875 60.291664Q382.20312 60.61979 382.29688 61.05729Q382.34375 61.354164 382.34375 62.08854L382.34375 65.916664L381.29688 65.916664L381.29688 62.135414Q381.29688 61.479164 381.17188 61.166664Q381.04688 60.854164 380.73438 60.666664Q380.42188 60.46354 380.0 60.46354Q379.32812 60.46354 378.82812 60.90104Q378.34375 61.322914 378.34375 62.510414L378.34375 65.916664L377.29688 65.916664ZM388.32812 65.916664L388.32812 65.135414Q387.73438 66.05729 386.59375 66.05729Q385.84375 66.05729 385.21875 65.65104Q384.59375 65.229164 384.25 64.49479Q383.90625 63.760414 383.90625 62.80729Q383.90625 61.885414 384.21875 61.11979Q384.53125 60.354164 385.15625 59.96354Q385.78125 59.55729 386.54688 59.55729Q387.10938 59.55729 387.54688 59.791664Q387.98438 60.02604 388.26562 60.40104L388.26562 57.322914L389.3125 57.322914L389.3125 65.916664L388.32812 65.916664ZM385.0 62.80729Q385.0 64.010414 385.5 64.604164Q386.0 65.18229 386.6875 65.18229Q387.375 65.18229 387.85938 64.61979Q388.34375 64.05729 388.34375 62.90104Q388.34375 61.61979 387.84375 61.02604Q387.35938 60.43229 386.64062 60.43229Q385.9375 60.43229 385.46875 61.010414Q385.0 61.572914 385.0 62.80729ZM392.4375 65.916664L390.53125 59.697914L391.625 59.697914L392.60938 63.291664L392.98438 64.61979Q393.01562 64.52604 393.3125 63.33854L394.29688 59.697914L395.375 59.697914L396.3125 63.30729L396.625 64.49479L396.98438 63.291664L398.04688 59.697914L399.07812 59.697914L397.125 65.916664L396.03125 65.916664L395.04688 62.18229L394.79688 61.135414L393.54688 65.916664L392.4375 65.916664ZM400.28125 65.916664L400.28125 59.697914L401.23438 59.697914L401.23438 60.635414Q401.59375 59.979164 401.89062 59.77604Q402.20312 59.55729 402.57812 59.55729Q403.10938 59.55729 403.65625 59.885414L403.29688 60.86979Q402.90625 60.635414 402.53125 60.635414Q402.17188 60.635414 401.89062 60.854164Q401.625 61.05729 401.51562 61.43229Q401.32812 61.99479 401.32812 62.65104L401.32812 65.916664L400.28125 65.916664ZM404.29688 58.541664L404.29688 57.322914L405.35938 57.322914L405.35938 58.541664L404.29688 58.541664ZM404.29688 65.916664L404.29688 59.697914L405.35938 59.697914L405.35938 65.916664L404.29688 65.916664ZM409.59375 64.979164L409.75 65.90104Q409.29688 65.99479 408.95312 65.99479Q408.375 65.99479 408.0625 65.822914Q407.75 65.635414 407.60938 65.33854Q407.48438 65.041664 407.48438 64.08854L407.48438 60.510414L406.71875 60.510414L406.71875 59.697914L407.48438 59.697914L407.48438 58.15104L408.53125 57.52604L408.53125 59.697914L409.59375 59.697914L409.59375 60.510414L408.53125 60.510414L408.53125 64.15104Q408.53125 64.604164 408.57812 64.729164Q408.64062 64.854164 408.76562 64.93229Q408.89062 65.010414 409.125 65.010414Q409.3125 65.010414 409.59375 64.979164ZM412.59375 64.979164L412.75 65.90104Q412.29688 65.99479 411.95312 65.99479Q411.375 65.99479 411.0625 65.822914Q410.75 65.635414 410.60938 65.33854Q410.48438 65.041664 410.48438 64.08854L410.48438 60.510414L409.71875 60.510414L409.71875 59.697914L410.48438 59.697914L410.48438 58.15104L411.53125 57.52604L411.53125 59.697914L412.59375 59.697914L412.59375 60.510414L411.53125 60.510414L411.53125 64.15104Q411.53125 64.604164 411.57812 64.729164Q411.64062 64.854164 411.76562 64.93229Q411.89062 65.010414 412.125 65.010414Q412.3125 65.010414 412.59375 64.979164ZM417.54688 63.916664L418.64062 64.041664Q418.39062 64.99479 417.6875 65.52604Q416.98438 66.05729 415.90625 66.05729Q414.54688 66.05729 413.73438 65.21354Q412.9375 64.36979 412.9375 62.854164Q412.9375 61.291664 413.75 60.43229Q414.5625 59.55729 415.84375 59.55729Q417.09375 59.55729 417.875 60.40104Q418.67188 61.24479 418.67188 62.791664Q418.67188 62.885414 418.67188 63.072914L414.03125 63.072914Q414.09375 64.104164 414.60938 64.65104Q415.125 65.18229 415.90625 65.18229Q416.48438 65.18229 416.89062 64.885414Q417.3125 64.572914 417.54688 63.916664ZM414.09375 62.21354L417.5625 62.21354Q417.5 61.416664 417.17188 61.02604Q416.65625 60.416664 415.85938 60.416664Q415.125 60.416664 414.625 60.90104Q414.14062 61.385414 414.09375 62.21354ZM420.29688 65.916664L420.29688 59.697914L421.23438 59.697914L421.23438 60.572914Q421.92188 59.55729 423.21875 59.55729Q423.78125 59.55729 424.25 59.760414Q424.73438 59.96354 424.96875 60.291664Q425.20312 60.61979 425.29688 61.05729Q425.34375 61.354164 425.34375 62.08854L425.34375 65.916664L424.29688 65.916664L424.29688 62.135414Q424.29688 61.479164 424.17188 61.166664Q424.04688 60.854164 423.73438 60.666664Q423.42188 60.46354 423.0 60.46354Q422.32812 60.46354 421.82812 60.90104Q421.34375 61.322914 421.34375 62.510414L421.34375 65.916664L420.29688 65.916664Z" fill-rule="nonzero"/><path fill="#757575" d="M29.4875 23.2375L31.378124 23.2375L31.378124 31.503124Q31.378124 33.659374 30.89375 34.940624Q30.409374 36.20625 29.128124 37.003124Q27.8625 37.8 25.784374 37.8Q23.76875 37.8 22.4875 37.1125Q21.221874 36.409374 20.675 35.096874Q20.128124 33.784374 20.128124 31.503124L20.128124 23.2375L22.01875 23.2375L22.01875 31.4875Q22.01875 33.3625 22.3625 34.253124Q22.70625 35.128124 23.55 35.6125Q24.39375 36.08125 25.628124 36.08125Q27.70625 36.08125 28.596874 35.14375Q29.4875 34.190624 29.4875 31.4875L29.4875 23.2375ZM32.8625 37.55L32.8625 27.175L34.45625 27.175L34.45625 28.659374Q35.596874 26.940624 37.753124 26.940624Q38.690624 26.940624 39.471874 27.284374Q40.26875 27.6125 40.659374 28.159374Q41.05 28.70625 41.20625 29.45625Q41.3 29.95625 41.3 31.175L41.3 37.55L39.534374 37.55L39.534374 31.2375Q39.534374 30.159374 39.33125 29.628124Q39.128124 29.096874 38.596874 28.784374Q38.08125 28.471874 37.378124 28.471874Q36.253124 28.471874 35.440624 29.190624Q34.628124 29.89375 34.628124 31.878124L34.628124 37.55L32.8625 37.55ZM42.221874 32.3625Q42.221874 29.4875 43.815624 28.096874Q45.159374 26.940624 47.08125 26.940624Q49.221874 26.940624 50.565624 28.346874Q51.925 29.753124 51.925 32.221874Q51.925 34.221874 51.33125 35.378124Q50.7375 36.51875 49.58125 37.159374Q48.440624 37.784374 47.08125 37.784374Q44.89375 37.784374 43.55 36.39375Q42.221874 34.9875 42.221874 32.3625ZM44.01875 32.3625Q44.01875 34.3625 44.878124 35.346874Q45.753124 36.33125 47.08125 36.33125Q48.39375 36.33125 49.253124 35.346874Q50.128124 34.346874 50.128124 32.3Q50.128124 30.378124 49.253124 29.39375Q48.378124 28.39375 47.08125 28.39375Q45.753124 28.39375 44.878124 29.39375Q44.01875 30.378124 44.01875 32.3625ZM53.8625 41.51875L53.8625 27.175L55.471874 27.175L55.471874 28.51875Q56.034374 27.7375 56.7375 27.346874Q57.45625 26.940624 58.471874 26.940624Q59.8 26.940624 60.815624 27.628124Q61.83125 28.315624 62.346874 29.565624Q62.878124 30.8 62.878124 32.284374Q62.878124 33.878124 62.3 35.159374Q61.7375 36.425 60.64375 37.1125Q59.55 37.784374 58.346874 37.784374Q57.471874 37.784374 56.76875 37.409374Q56.08125 37.034374 55.628124 36.471874L55.628124 41.51875L53.8625 41.51875ZM55.45625 32.425Q55.45625 34.425 56.26875 35.378124Q57.08125 36.33125 58.2375 36.33125Q59.409374 36.33125 60.2375 35.346874Q61.08125 34.3625 61.08125 32.26875Q61.08125 30.3 60.253124 29.315624Q59.440624 28.315624 58.315624 28.315624Q57.190624 28.315624 56.315624 29.378124Q55.45625 30.425 55.45625 32.425ZM68.70625 35.971874L68.95625 37.534374Q68.22188 37.690624 67.62813 37.690624Q66.675 37.690624 66.14375 37.39375Q65.62813 37.08125 65.40938 36.596874Q65.19063 36.096874 65.19063 34.51875L65.19063 28.55L63.909374 28.55L63.909374 27.175L65.19063 27.175L65.19063 24.6125L66.94063 23.55L66.94063 27.175L68.70625 27.175L68.70625 28.55L66.94063 28.55L66.94063 34.6125Q66.94063 35.3625 67.03438 35.58125Q67.12813 35.784374 67.33125 35.925Q67.55 36.05 67.94063 36.05Q68.22188 36.05 68.70625 35.971874ZM70.87813 25.253124L70.87813 23.2375L72.64375 23.2375L72.64375 25.253124L70.87813 25.253124ZM70.87813 37.55L70.87813 27.175L72.64375 27.175L72.64375 37.55L70.87813 37.55ZM74.8625 37.55L74.8625 27.175L76.44063 27.175L76.44063 28.628124Q76.925 27.878124 77.7375 27.409374Q78.55 26.940624 79.58125 26.940624Q80.7375 26.940624 81.47188 27.425Q82.20625 27.89375 82.51875 28.753124Q83.75313 26.940624 85.72188 26.940624Q87.26875 26.940624 88.09688 27.8Q88.925 28.659374 88.925 30.425L88.925 37.55L87.175 37.55L87.175 31.01875Q87.175 29.95625 87.00313 29.503124Q86.83125 29.034374 86.37813 28.753124Q85.94063 28.471874 85.33125 28.471874Q84.2375 28.471874 83.50313 29.20625Q82.78438 29.925 82.78438 31.51875L82.78438 37.55L81.03438 37.55L81.03438 30.815624Q81.03438 29.64375 80.59688 29.065624Q80.175 28.471874 79.19063 28.471874Q78.45625 28.471874 77.81563 28.8625Q77.19063 29.253124 76.90938 30.003124Q76.62813 30.753124 76.62813 32.175L76.62813 37.55L74.8625 37.55ZM90.87813 25.253124L90.87813 23.2375L92.64375 23.2375L92.64375 25.253124L90.87813 25.253124ZM90.87813 37.55L90.87813 27.175L92.64375 27.175L92.64375 37.55L90.87813 37.55ZM93.94063 37.55L93.94063 36.128124L100.55 28.55Q99.425 28.596874 98.56563 28.596874L94.33125 28.596874L94.33125 27.175L102.81563 27.175L102.81563 28.346874L97.19063 34.925L96.1125 36.128124Q97.28438 36.034374 98.33125 36.034374L103.12813 36.034374L103.12813 37.55L93.94063 37.55ZM110.97188 34.20625L112.78438 34.440624Q112.3625 36.01875 111.19063 36.909374Q110.03438 37.784374 108.22188 37.784374Q105.95625 37.784374 104.6125 36.39375Q103.28438 34.9875 103.28438 32.45625Q103.28438 29.83125 104.62813 28.39375Q105.97188 26.940624 108.12813 26.940624Q110.20625 26.940624 111.51875 28.3625Q112.84688 29.76875 112.84688 32.346874Q112.84688 32.503124 112.83125 32.815624L105.09688 32.815624Q105.19063 34.51875 106.06563 35.425Q106.94063 36.33125 108.2375 36.33125Q109.20625 36.33125 109.87813 35.83125Q110.56563 35.315624 110.97188 34.20625ZM105.19063 31.3625L110.9875 31.3625Q110.87813 30.065624 110.33125 29.409374Q109.4875 28.39375 108.14375 28.39375Q106.94063 28.39375 106.1125 29.20625Q105.28438 30.003124 105.19063 31.3625ZM121.59688 37.55L121.59688 36.2375Q120.6125 37.784374 118.69063 37.784374Q117.45625 37.784374 116.40938 37.096874Q115.37813 36.409374 114.8 35.190624Q114.2375 33.971874 114.2375 32.378124Q114.2375 30.815624 114.75313 29.55Q115.26875 28.284374 116.3 27.6125Q117.34688 26.940624 118.6125 26.940624Q119.55 26.940624 120.28438 27.346874Q121.01875 27.7375 121.4875 28.3625L121.4875 23.2375L123.22188 23.2375L123.22188 37.55L121.59688 37.55ZM116.03438 32.378124Q116.03438 34.3625 116.87813 35.346874Q117.72188 36.33125 118.8625 36.33125Q120.01875 36.33125 120.81563 35.39375Q121.62813 34.45625 121.62813 32.51875Q121.62813 30.39375 120.8 29.39375Q119.9875 28.39375 118.78438 28.39375Q117.6125 28.39375 116.81563 29.3625Q116.03438 30.315624 116.03438 32.378124Z" fill-rule="nonzero"/></svg>